<svg version="1.1" xmlns="http://www.w3.org/2000/svg" width="1024" height="1024" viewBox="0 0 1024 1024">
<title></title>
<path fill="#c1c1c1" d="M50.395 1010.761l-37.124-37.124c-10.11-10.11-14.337-22.486-12.903-36.974 1.509-14.563 8.3-28.069 20.599-40.369l384.37-384.294-384.37-384.37c-12.3-12.3-19.165-25.73-20.675-40.293-1.434-14.563 2.867-26.862 12.979-36.974l37.124-37.124c10.11-10.036 22.486-14.337 36.974-12.827 14.563 1.358 27.993 8.3 40.369 20.523l384.294 384.37 384.294-384.37c12.3-12.3 25.806-19.165 40.293-20.599 14.638-1.509 26.938 2.792 36.974 12.903l37.2 37.124c10.036 10.11 14.337 22.486 12.827 36.974-1.434 14.563-8.3 28.069-20.599 40.369l-384.294 384.219 13.884 13.959 370.485 370.485c12.3 12.3 19.165 25.655 20.599 40.293 1.509 14.563-2.792 26.862-12.903 36.974l-37.124 37.124c-10.11 10.036-22.486 14.337-36.974 12.827-14.638-1.434-28.069-8.3-40.369-20.523l-384.294-384.37-384.37 384.37c-12.3 12.3-25.73 19.165-40.293 20.599-14.563 1.509-26.938-2.792-36.974-12.903z"></path>
</svg>
