<?xml version="1.0" encoding="UTF-8"?>
<svg width="157px" height="65px" viewBox="0 0 157 65" version="1.1" xmlns="http://www.w3.org/2000/svg" xmlns:xlink="http://www.w3.org/1999/xlink">
    <title>logo</title>
    <defs>
        <path d="M12.4507013,3.7022791 C14.5970898,3.7022791 15.8849229,5.13320477 15.8849229,7.42268583 C15.8849229,9.7121669 14.5970898,11.1430926 12.4507013,11.1430926 C10.3043128,11.1430926 9.01647966,9.7121669 9.01647966,7.42268583 C9.01647966,5.13320477 10.3043128,3.7022791 12.4507013,3.7022791 Z M79.6456697,3.7022791 C81.7920582,3.7022791 83.0798913,5.13320477 83.0798913,7.42268583 C83.0798913,9.7121669 81.7920582,11.1430926 79.6456697,11.1430926 C77.4992812,11.1430926 76.2114481,9.7121669 76.2114481,7.42268583 C76.2114481,5.13320477 77.4992812,3.7022791 79.6456697,3.7022791 Z M24.912763,3.84537167 L25.0558555,3.98846424 L25.0558555,8.13814867 C25.0558555,8.99670407 25.3420407,9.85525947 26.4867812,9.85525947 C27.4884292,9.85525947 28.203892,9.13979663 28.203892,7.42268583 L28.203892,7.42268583 L28.203892,3.98846424 L28.3469846,3.84537167 L29.4917251,3.84537167 L29.6348177,3.98846424 L29.6348177,10.8569074 L29.4917251,11 L28.4900771,11 L28.3469846,10.8569074 L28.203892,10.2845372 L28.0607994,10.2845372 L28.0607994,10.2845372 L28.0370332,10.3173905 C27.918202,10.4746671 27.3537538,11.1430926 26.3436886,11.1430926 C24.3403927,11.1430926 23.6249299,9.7121669 23.6249299,8.13814867 L23.6249299,8.13814867 L23.6249299,3.98846424 L23.7680224,3.84537167 L24.912763,3.84537167 Z M64.8485975,3.7022791 C66.994986,3.7022791 67.7104488,4.70392707 67.7104488,6.85031557 L67.7104488,6.85031557 L67.7104488,10.8569074 L67.5673562,11 L66.5657083,11 L66.4226157,10.8569074 L66.2795231,10.2845372 L66.1364306,10.2845372 C66.1364306,10.2845372 65.5640603,11.1430926 64.1331346,11.1430926 C62.5591164,11.1430926 61.700561,10.2845372 61.700561,8.8536115 C61.700561,7.27959327 62.9883941,6.56413043 64.8485975,6.56413043 C65.5640603,6.56413043 66.1364306,6.707223 66.1364306,6.707223 L66.1364306,6.707223 L66.2795231,6.56413043 L66.2795231,6.2779453 C66.2795231,5.27629734 65.8502454,4.9901122 64.8485975,4.9901122 C63.8469495,4.9901122 63.4176718,5.27629734 63.4176718,5.8486676 L63.4176718,5.8486676 L63.2745792,5.99176017 L62.1298387,5.99176017 L61.9867461,5.8486676 C61.9867461,4.84701964 62.702209,3.7022791 64.8485975,3.7022791 Z M45.2319074,3.7022791 C47.5213885,3.7022791 48.5230365,5.4193899 48.5230365,7.42268583 L48.5230365,7.42268583 L48.5230365,7.85196353 L48.3799439,7.9950561 L43.6578892,7.9950561 L43.5147966,8.13814867 C43.5147966,8.4243338 43.6578892,9.85525947 45.375,9.85525947 C45.9473703,9.85525947 46.5197405,9.7121669 46.8059257,8.99670407 L46.8059257,8.99670407 L46.9490182,8.8536115 L48.0937588,8.8536115 L48.2368513,8.99670407 C48.0937588,10.1414446 47.0921108,11.1430926 45.375,11.1430926 C43.0855189,11.1430926 41.9407784,9.56907433 41.9407784,7.42268583 C41.9407784,5.4193899 42.9424264,3.7022791 45.2319074,3.7022791 Z M19.6053296,3.7022791 C21.6086255,3.7022791 22.6102735,4.84701964 22.7533661,6.13485273 L22.7533661,6.13485273 L22.6102735,6.2779453 L21.465533,6.2779453 L21.3224404,6.13485273 C21.1793478,5.56248247 20.7500701,4.9901122 19.6053296,4.9901122 C18.3174965,4.9901122 17.6020337,5.8486676 17.6020337,7.42268583 C17.6020337,8.99670407 18.3174965,9.85525947 19.6053296,9.85525947 C20.7500701,9.85525947 21.1793478,9.2828892 21.3224404,8.71051893 L21.3224404,8.71051893 L21.465533,8.56742637 L22.6102735,8.56742637 L22.7533661,8.71051893 C22.6102735,9.99835203 21.6086255,11.1430926 19.6053296,11.1430926 C17.4589411,11.1430926 16.171108,9.7121669 16.171108,7.42268583 C16.171108,5.13320477 17.4589411,3.7022791 19.6053296,3.7022791 Z M38.9358345,3.7022791 C40.9391304,3.7022791 41.3684081,4.9901122 41.3684081,6.56413043 L41.3684081,6.56413043 L41.3684081,10.8569074 L41.2253156,11 L40.080575,11 L39.9374825,10.8569074 L39.9374825,6.56413043 C39.9374825,5.70557504 39.7943899,4.9901122 38.6496494,4.9901122 C37.6480014,4.9901122 37.0756311,5.70557504 37.0756311,6.85031557 L37.0756311,6.85031557 L37.0756311,10.8569074 L36.9325386,11 L35.787798,11 L35.6447055,10.8569074 L35.6447055,6.56413043 C35.6447055,5.70557504 35.5016129,4.9901122 34.3568724,4.9901122 C33.6414095,4.9901122 32.7828541,5.4193899 32.7828541,6.85031557 L32.7828541,6.85031557 L32.7828541,10.8569074 L32.6397616,11 L31.495021,11 L31.3519285,10.8569074 L31.3519285,3.98846424 L31.495021,3.84537167 L32.496669,3.84537167 L32.6397616,3.98846424 L32.7828541,4.5608345 L32.9259467,4.5608345 C33.2121318,4.1315568 33.7845021,3.7022791 34.7861501,3.7022791 C35.9308906,3.7022791 36.3601683,4.27464937 36.6463534,4.70392707 L36.6463534,4.70392707 L36.789446,4.70392707 C37.2187237,4.1315568 37.9341865,3.7022791 38.9358345,3.7022791 Z M3.292777,0.983520337 C6.87009116,0.983520337 8.0148317,2.98681627 8.0148317,5.99176017 C8.0148317,8.99670407 6.87009116,11 3.292777,11 L3.292777,11 L0.2878331,11 L0.144740533,10.8569074 L0.144740533,1.1266129 L0.2878331,0.983520337 Z M52.9719144,3.7022791 C54.9752104,3.7022791 55.6906732,4.9901122 55.6906732,6.707223 L55.6906732,6.707223 L55.6906732,10.8569074 L55.5475806,11 L54.4028401,11 L54.2597475,10.8569074 L54.2597475,6.707223 C54.2597475,5.99176017 54.116655,4.9901122 52.8288219,4.9901122 C51.5409888,4.9901122 50.9686185,5.70557504 50.9686185,7.42268583 L50.9686185,7.42268583 L50.9686185,10.8569074 L50.8255259,11 L49.6807854,11 L49.5376928,10.8569074 L49.5376928,3.98846424 L49.6807854,3.84537167 L50.6824334,3.84537167 L50.8255259,3.98846424 L50.9686185,4.5608345 L51.1117111,4.5608345 C51.1117111,4.5608345 51.6840813,3.7022791 52.9719144,3.7022791 Z M58.8387097,2.27135344 L58.9818022,2.414446 L58.9818022,3.7022791 L59.1248948,3.84537167 L60.698913,3.84537167 L60.8420056,3.98846424 L60.8420056,4.9901122 L60.698913,5.13320477 L59.1248948,5.13320477 L58.9818022,5.27629734 L58.9818022,9.13979663 C58.9818022,9.56907433 59.2679874,9.7121669 59.5541725,9.7121669 L59.5541725,9.7121669 L60.698913,9.7121669 L60.8420056,9.85525947 L60.8420056,10.8569074 L60.698913,11 L59.5541725,11 C58.5525245,11 57.5508766,10.4276297 57.5508766,9.13979663 L57.5508766,9.13979663 L57.5508766,5.27629734 L57.407784,5.13320477 L56.406136,5.13320477 L56.2630435,4.9901122 L56.2630435,3.98846424 L56.406136,3.84537167 L57.407784,3.84537167 L57.5508766,3.7022791 L57.5508766,2.414446 L57.6939691,2.27135344 L58.8387097,2.27135344 Z M70.6048212,2.27135344 L70.7479137,2.414446 L70.7479137,3.7022791 L70.8910063,3.84537167 L72.4650245,3.84537167 L72.6081171,3.98846424 L72.6081171,4.9901122 L72.4650245,5.13320477 L70.8910063,5.13320477 L70.7479137,5.27629734 L70.7479137,9.13979663 C70.7479137,9.56907433 71.0340989,9.7121669 71.320284,9.7121669 L71.320284,9.7121669 L72.4650245,9.7121669 L72.6081171,9.85525947 L72.6081171,10.8569074 L72.4650245,11 L71.320284,11 C70.318636,11 69.3169881,10.4276297 69.3169881,9.13979663 L69.3169881,9.13979663 L69.3169881,5.27629734 L69.1738955,5.13320477 L68.1722475,5.13320477 L68.029155,4.9901122 L68.029155,3.98846424 L68.1722475,3.84537167 L69.1738955,3.84537167 L69.3169881,3.7022791 L69.3169881,2.414446 L69.4600806,2.27135344 L70.6048212,2.27135344 Z M75.3268759,3.84537167 L75.4699684,3.98846424 L75.4699684,10.8569074 L75.3268759,11 L74.1821353,11 L74.0390428,10.8569074 L74.0390428,3.98846424 L74.1821353,3.84537167 L75.3268759,3.84537167 Z M87.5157609,3.7022791 C89.5190568,3.7022791 90.2345196,4.9901122 90.2345196,6.707223 L90.2345196,6.707223 L90.2345196,10.8569074 L90.0914271,11 L88.9466865,11 L88.803594,10.8569074 L88.803594,6.707223 C88.803594,5.99176017 88.6605014,4.9901122 87.3726683,4.9901122 C86.0848352,4.9901122 85.5124649,5.70557504 85.5124649,7.42268583 L85.5124649,7.42268583 L85.5124649,10.8569074 L85.3693724,11 L84.2246318,11 L84.0815393,10.8569074 L84.0815393,3.98846424 L84.2246318,3.84537167 L85.2262798,3.84537167 L85.3693724,3.98846424 L85.5124649,4.5608345 L85.6555575,4.5608345 C85.6555575,4.5608345 86.2279278,3.7022791 87.5157609,3.7022791 Z M12.4507013,4.9901122 C11.1628682,4.9901122 10.4474053,5.8486676 10.4474053,7.42268583 C10.4474053,8.99670407 11.1628682,9.85525947 12.4507013,9.85525947 C13.7385344,9.85525947 14.4539972,8.99670407 14.4539972,7.42268583 C14.4539972,5.8486676 13.7385344,4.9901122 12.4507013,4.9901122 Z M64.99169,7.70887097 C63.7038569,7.70887097 63.1314867,8.13814867 63.1314867,8.8536115 C63.1314867,9.56907433 63.5607644,9.85525947 64.4193198,9.85525947 C65.5640603,9.85525947 66.2795231,9.2828892 66.2795231,8.4243338 L66.2795231,8.4243338 L66.2795231,7.9950561 L66.1364306,7.85196353 C66.1364306,7.85196353 65.7071529,7.70887097 64.99169,7.70887097 Z M79.6456697,4.9901122 C78.3578366,4.9901122 77.6423738,5.8486676 77.6423738,7.42268583 C77.6423738,8.99670407 78.3578366,9.85525947 79.6456697,9.85525947 C80.9335028,9.85525947 81.6489656,8.99670407 81.6489656,7.42268583 C81.6489656,5.8486676 80.9335028,4.9901122 79.6456697,4.9901122 Z M3.14968443,2.27135344 L1.71875877,2.27135344 L1.5756662,2.414446 L1.5756662,9.56907433 L1.71875877,9.7121669 L3.14968443,9.7121669 C5.8684432,9.7121669 6.58390603,8.4243338 6.58390603,5.99176017 C6.58390603,3.55918654 5.8684432,2.27135344 3.14968443,2.27135344 L3.14968443,2.27135344 Z M45.2319074,4.9901122 C43.6578892,4.9901122 43.5147966,6.2779453 43.5147966,6.707223 L43.5147966,6.707223 L43.6578892,6.85031557 L46.8059257,6.85031557 L46.9490182,6.707223 C46.9490182,6.2779453 46.8059257,4.9901122 45.2319074,4.9901122 Z M75.3268759,1.26970547 L75.4699684,1.41279804 L75.4699684,2.55753857 L75.3268759,2.70063114 L74.1821353,2.70063114 L74.0390428,2.55753857 L74.0390428,1.41279804 L74.1821353,1.26970547 L75.3268759,1.26970547 Z" id="path-1"></path>
    </defs>
    <g id="Components" stroke="none" stroke-width="1" fill="none" fill-rule="evenodd">
        <g id="logo" fill-rule="nonzero">
            <g transform="translate(0.000000, -0.000000)">
                <g id="Group-10" transform="translate(51.000000, 15.000000)">
                    <g id="Group-2" transform="translate(0.422773, 0.000000)" fill="#000000">
                        <path d="M6.22315941,15.4471797 C1.93185194,15.4471797 -2.29393877e-14,13.301526 -2.29393877e-14,10.5144669 L0.213801796,10.3006651 L2.78705912,10.3006651 L3.00086092,10.5144669 C3.00086092,12.0416226 3.8560681,12.8739224 6.43696121,12.8739224 C8.36881315,12.8739224 9.43782212,12.232517 9.43782212,10.9420705 C9.43782212,9.41491479 8.58261494,9.01021853 5.57411825,8.58261494 C2.56562155,8.15501135 0.229073353,7.05545926 0.229073353,4.07750568 C0.229073353,1.93185194 1.9471235,-8.34159554e-15 6.02462917,-8.34159554e-15 C10.1021348,-8.34159554e-15 11.820185,1.93185194 11.820185,4.50510927 L11.6063832,4.71891106 L9.01021853,4.71891106 L8.79641674,4.50510927 C8.79641674,3.21466271 8.15501135,2.57325733 5.79555582,2.57325733 C3.86370388,2.57325733 3.22229849,3.21466271 3.22229849,4.10041301 C3.22229849,5.39085956 4.07750568,5.81846315 7.08600237,6.24606675 C10.0944991,6.67367034 12.4310473,7.96411689 12.4310473,10.9649778 C12.4310473,13.3244333 10.7129971,15.4700871 6.20788785,15.4700871" id="Path"></path>
                        <path d="M19.0970818,6.8645648 C17.3790317,6.8645648 16.7376263,8.14737557 16.7376263,9.86542572 C16.7376263,11.5834759 17.3790317,12.8662866 19.0970818,12.8662866 C20.815132,12.8662866 21.4565374,11.5758401 21.4565374,9.86542572 C21.4565374,8.15501135 20.815132,6.8645648 19.0970818,6.8645648 M19.7384872,15.4471797 C18.6987851,15.5093838 17.6828457,15.1197084 16.9514281,14.3781708 L16.7376263,14.3781708 L16.7376263,19.3108836 L16.5238245,19.5246854 L13.9811103,19.5246854 L13.7673085,19.3108836 L13.7673085,4.71891106 L13.9811103,4.50510927 L16.2718438,4.50510927 L16.4856456,4.71891106 L16.6994474,5.36031645 L16.9132492,5.36031645 C17.6446668,4.61877877 18.6606062,4.22910338 19.7003083,4.29130747 C22.2735656,4.29130747 24.4192194,6.43696121 24.4192194,9.86542572 C24.4192194,13.2938902 22.2735656,15.4471797 19.7003083,15.4471797" id="Shape"></path>
                        <path d="M32.6124096,7.08600237 L31.0852539,7.08600237 C29.3672038,7.08600237 28.7257984,7.94120955 28.7257984,9.87306149 L28.7257984,15.0195761 L28.5119966,15.2333779 L25.9387393,15.2333779 L25.7249375,15.0195761 L25.7249375,4.71891106 L25.9387393,4.50510927 L28.2981948,4.50510927 L28.5119966,4.71891106 L28.7257984,5.36031645 L28.9396002,5.36031645 C28.9396002,5.36031645 29.3672038,4.50510927 31.2990557,4.50510927 L32.5895023,4.50510927 L32.8033041,4.71891106 L32.8033041,6.8645648 L32.6124096,7.08600237 Z" id="Path"></path>
                        <path d="M40.5536192,15.4471797 C39.698412,17.5928335 38.835569,18.88328 35.8347081,18.88328 L34.7656991,18.88328 L34.5518973,18.6694782 L34.5518973,16.5238245 L34.7656991,16.3100227 L35.8347081,16.3100227 C36.9113529,16.3100227 37.1251547,16.0962209 37.3618638,15.4548155 L37.3618638,15.2410137 L33.9257635,6.84165746 L33.9257635,4.71891106 L34.1395653,4.50510927 L36.0714172,4.50510927 L36.285219,4.71891106 L38.8584764,12.0110795 L39.0722782,12.0110795 L41.6455355,4.71891106 L41.8593373,4.50510927 L43.7606461,4.50510927 L43.9744479,4.71891106 L43.9744479,6.8645648 L40.5536192,15.4471797 Z" id="Path"></path>
                        <path d="M62.4377601,8.58261494 C62.3151037,7.60905236 61.4871669,6.87888001 60.5059082,6.87888001 C59.5246495,6.87888001 58.6967126,7.60905236 58.5740562,8.58261494 L58.787858,8.79641674 L62.2239583,8.79641674 L62.4377601,8.58261494 Z M65.6600586,10.7282687 L65.4462568,10.9420705 L58.7954938,10.9420705 L58.581692,11.1558723 C58.6373324,11.6686897 58.8949649,12.1382172 59.2976183,12.4606265 C59.7002717,12.7830358 60.214772,12.9317641 60.7273458,12.8739224 C61.313968,12.9449583 61.8945286,12.7011228 62.2545014,12.232517 L62.4683032,12.0187152 L65.0415606,12.0187152 L65.2553624,12.232517 C65.0415606,13.5229636 63.9649158,15.4548155 60.7502531,15.4548155 C57.100351,15.4548155 55.4052082,12.8815582 55.4052082,9.87306149 C55.4052082,6.8645648 57.1232583,4.29130747 60.5517229,4.29130747 C63.9801874,4.29130747 65.6982375,6.8645648 65.6982375,9.87306149 L65.6600586,10.7282687 Z" id="Shape"></path>
                        <path d="M74.021236,7.08600237 L72.4940803,7.08600237 C70.7760302,7.08600237 70.1346248,7.94120955 70.1346248,9.87306149 L70.1346248,15.0195761 L69.920823,15.2333779 L67.3475656,15.2333779 L67.1337638,15.0195761 L67.1337638,4.71891106 L67.3475656,4.50510927 L69.7222927,4.50510927 L69.9360945,4.71891106 L70.1498963,5.36031645 L70.3636981,5.36031645 C70.3636981,5.36031645 70.7913017,4.50510927 72.7231537,4.50510927 L74.0136002,4.50510927 L74.227402,4.71891106 L74.227402,6.8645648 L74.021236,7.08600237 Z" id="Path"></path>
                        <polygon id="Path" points="54.4965506 15.2333779 53.2137398 15.2333779 52.7785004 15.0195761 49.7776395 11.8049134 49.5638377 11.8049134 48.2733912 13.0877242 48.0595894 13.5229636 48.0595894 15.0195761 47.8457876 15.2333779 45.2725302 15.2333779 45.0587284 15.0195761 45.0587284 0.427603591 45.2725302 0.213801796 47.8457876 0.213801796 48.0595894 0.427603591 48.0595894 9.01021853 48.2733912 9.01021853 52.5646986 4.71891106 52.999938 4.50510927 54.2827488 4.50510927 54.4965506 4.71891106 54.4965506 6.8645648 51.9232932 9.4454579 51.9232932 9.6592597 54.7103524 12.8739224 54.7103524 15.0195761"></polygon>
                    </g>
                    <rect id="Rectangle" fill="#000000" x="0" y="23.8378331" width="105.029944" height="21.463885"></rect>
                    <g id="Group" opacity="0.98" transform="translate(7.126964, 28.068776)" fill="#FFFFFF">
                        <g id="Combined-Shape">
                            <use xlink:href="#path-1"></use>
                            <use xlink:href="#path-1"></use>
                        </g>
                    </g>
                </g>
                <path d="M22.2080645,59.9854839 L21.7,60.3298387 C21.5189632,60.4508139 21.3455191,60.5827822 21.1806452,60.725 C21.0319008,60.8519839 20.9075556,61.0050241 20.8137097,61.1766129 C20.7313259,61.3346305 20.7092539,61.5172262 20.7516129,61.6903226 L20.7516129,61.7862903 L20.7854839,61.8822581 L20.825,61.9782258 L20.8870968,62.0967742 C20.7685484,62.2717742 20.6669355,62.4524194 20.5709677,62.6217742 C20.4821686,62.7823576 20.3802063,62.9353009 20.266129,63.0790323 C20.1616401,63.2122855 20.0285156,63.3203286 19.8766129,63.3951613 C19.6991341,63.4732302 19.5056587,63.5080557 19.3120968,63.4967742 C19.0876095,63.4871094 18.8654487,63.4472344 18.6516129,63.3782258 C18.4398573,63.308466 18.235614,63.2176912 18.0419355,63.1072581 C17.8457359,62.991524 17.6571754,62.8633028 17.4774194,62.7233871 C17.291129,62.5822581 17.1048387,62.4298387 16.9129032,62.2774194 L16.9129032,62.2096774 L16.9129032,62.1419355 L16.9129032,62.0741935 C16.9118011,62.0516264 16.9118011,62.0290188 16.9129032,62.0064516 C16.8559315,61.8446303 16.7781266,61.6909182 16.6814516,61.5491935 C16.5825623,61.4095227 16.4690128,61.2808333 16.3427419,61.1653226 C16.2166365,61.049047 16.0827215,60.9415377 15.9419355,60.8435484 C15.8008065,60.7475806 15.6540323,60.6572581 15.5129032,60.5725806 L15.5129032,60.6233871 L15.5129032,60.7024194 L15.5129032,60.7814516 L15.5129032,60.866129 L15.541129,60.9508065 C15.6935991,61.3912664 15.9084181,61.807597 16.1790323,62.1870968 C16.4411766,62.5569378 16.7505146,62.890947 17.0991935,63.1806452 C17.441391,63.4635101 17.8214027,63.6972173 18.2282258,63.875 C18.6248073,64.0494715 19.0490413,64.1526635 19.4814516,64.1798387 C19.898112,64.2065451 20.3153298,64.1370088 20.7008065,63.9766129 C21.0910585,63.8104472 21.4356759,63.5529522 21.7056452,63.2258065 C21.9963489,62.876503 22.2029986,62.465135 22.3096774,62.0233871 C22.4245566,61.5122898 22.4245566,60.9820651 22.3096774,60.4709677 L22.2080645,59.9854839 Z" id="Path" fill="#000000"></path>
                <path d="M4.99596774,38.4604839 L4.86048387,38.5225806 L4.725,38.5903226 L4.59516129,38.6693548 L4.46532258,38.7540323 C4.22258065,38.9120968 3.99677419,39.0758065 3.78225806,39.2395161 C3.56958559,39.4111772 3.37134123,39.5999814 3.18951613,39.8040323 C2.99320014,40.0165418 2.81741783,40.2471379 2.66451613,40.4927419 C2.48422197,40.7826488 2.32753412,41.0865855 2.19596774,41.4016129 C2.61167954,41.3433695 3.03348175,41.3433695 3.44919355,41.4016129 C3.89267593,41.4625655 4.32689762,41.5782316 4.74193548,41.7459677 C5.20234056,41.9331788 5.64295591,42.1657783 6.05725806,42.4403226 C6.52572124,42.7474766 6.96929401,43.0910096 7.38387097,43.4677419 L5.64516129,38.2516129 L5.48709677,38.291129 L5.32903226,38.3362903 L5.1766129,38.3927419 L5.02419355,38.4548387" id="Path" fill="#000000"></path>
                <path d="M6.42419355,38.1725806 L8.1516129,43.2532258 L11.9903226,43.3096774 C11.6266639,42.5548694 11.2038385,41.8300258 10.7258065,41.1419355 C10.3175029,40.564358 9.85020113,40.0308394 9.33145161,39.55 C8.90329576,39.1480376 8.41824768,38.8113572 7.89193548,38.5508065 C7.44216748,38.3307122 6.95248922,38.2039719 6.45241935,38.1782258" id="Path" fill="#000000"></path>
                <path d="M8.69919355,44.8451613 C9.33190476,45.5997057 9.91100894,46.3976245 10.4322581,47.2330645 C11.0333281,48.1932385 11.579891,49.1864753 12.0693548,50.2080645 C12.5943548,51.2975806 13.091129,52.466129 13.5540323,53.7362903 C14.0169355,55.0064516 14.4516129,56.35 14.8354839,57.7612903 C14.8354839,57.1459677 14.8693548,56.5137097 14.8354839,55.8701613 C14.8016129,55.2266129 14.7903226,54.5717742 14.733871,53.9112903 C14.6774194,53.2508065 14.6096774,52.5790323 14.5137097,51.9072581 C14.4177419,51.2354839 14.3048387,50.5637097 14.1693548,49.8862903 C14.0733871,49.4346774 13.9717742,48.9943548 13.8701613,48.5596774 C13.7685484,48.125 13.6443548,47.7072581 13.5258065,47.2951613 C13.4072581,46.8830645 13.2774194,46.4879032 13.1419355,46.0983871 C13.0064516,45.708871 12.8653226,45.3362903 12.7241935,44.9693548 L8.69919355,44.8451613 Z" id="Path" fill="#000000"></path>
                <path d="M2.93098879e-14,7.525 C0.109139785,8.56747312 0.233333333,9.62123656 0.372580645,10.6862903 C0.511827957,11.7513441 0.662365591,12.8295699 0.824193548,13.9209677 C0.989784946,15.0123656 1.16854839,16.113172 1.36048387,17.2233871 C1.55241935,18.3336022 1.7594086,19.4626344 1.98145161,20.6104839 C2.26747312,22.0895161 2.57043011,23.5365591 2.89032258,24.9516129 C3.21021505,26.3666667 3.54327957,27.7534946 3.88951613,29.1120968 C4.23951613,30.4669355 4.60080645,31.7841398 4.9733871,33.0637097 C5.34596774,34.3432796 5.72231183,35.5833333 6.10241935,36.783871 C6.2723813,36.7574767 6.44412987,36.7442653 6.61612903,36.7443548 C6.79015044,36.746044 6.96378286,36.7611425 7.13548387,36.7895161 C7.31338994,36.8200596 7.48884926,36.8634528 7.66048387,36.9193548 C7.83965969,36.9801809 8.01498154,37.0518177 8.18548387,37.133871 C7.78655914,36.1817204 7.39139785,35.2013441 7,34.1927419 C6.60860215,33.1841398 6.23225806,32.1548387 5.87096774,31.1048387 C5.49462366,30.0548387 5.13333333,28.9822581 4.78709677,27.8870968 C4.44086022,26.7919355 4.1077957,25.6704301 3.78790323,24.5225806 C3.35510753,23.0360215 2.95053763,21.5607527 2.57419355,20.0967742 C2.19784946,18.6327957 1.85349462,17.1913978 1.54112903,15.7725806 C1.22876344,14.3575269 0.942741935,12.9594086 0.683064516,11.5782258 C0.423387097,10.197043 0.195698925,8.84596774 2.93098879e-14,7.525" id="Path" fill="#000000"></path>
                <path d="M34.2153226,29.1741935 C33.9895161,29.2080645 33.7637097,29.2532258 33.5379032,29.3040323 C33.3120968,29.3548387 33.0919355,29.4 32.866129,29.4564516 L32.2,29.6370968 L31.5395161,29.8459677 L30.8282258,36.2758065 C31.5377804,35.4669332 32.2916249,34.6980119 33.0862903,33.9725806 C33.8552645,33.2789207 34.6638846,32.6305166 35.5080645,32.0306452 C36.318715,31.4536741 37.1632422,30.9258446 38.0370968,30.45 C38.8804432,29.9900925 39.7514656,29.5828613 40.6451613,29.2306452 C40.1509833,29.0778074 39.6449325,28.9664007 39.1322581,28.8975806 C38.6406099,28.8259773 38.1444155,28.7901306 37.6475806,28.7903218 C37.1395161,28.7903218 36.6145161,28.8354839 36.0725806,28.8919355 C35.5306452,28.9483871 34.9435484,29.0387097 34.333871,29.1290323 L34.2153226,29.1290323 L34.2153226,29.1741935 Z" id="Path" fill="#000000"></path>
                <path d="M28.7225806,38.9516129 L19.3798387,43.5862903 C19.2556452,44.1 19.1483871,44.625 19.0637097,45.15 C18.9790323,45.675 18.9169355,46.2169355 18.8774194,46.758871 C18.8379032,47.3008065 18.8209677,47.8483871 18.8266129,48.4016129 C18.8322581,48.9548387 18.866129,49.5306452 18.9225806,50.0951613 C19.0086857,50.9051033 19.1482372,51.7084677 19.3403226,52.5 C19.5291334,53.2683628 19.7705633,54.022831 20.0629032,54.7580645 C20.3495389,55.4811268 20.6872182,56.1828959 21.0733871,56.8580645 C21.4519602,57.5187152 21.8783675,58.1507792 22.3491935,58.7491935 C22.4337013,55.0334048 23.0827881,51.3520738 24.2741935,47.8314516 C24.8200425,46.2071387 25.4822415,44.6242755 26.2556452,43.0951613 C26.9769481,41.6562894 27.8014123,40.2714913 28.7225806,38.9516129" id="Path" fill="#000000"></path>
                <path d="M25.9056452,-7.10542736e-15 C26.2199743,1.18853657 26.4724638,2.39257237 26.6620968,3.60725806 C26.8653226,4.86612903 27.0177419,6.18145161 27.1306452,7.55887097 C27.2435484,8.93629032 27.3282258,10.3814516 27.3846774,11.8379032 C27.441129,13.2943548 27.475,14.8862903 27.5032258,16.4895161 C27.5923074,19.5804893 27.3557893,22.6722538 26.7975806,25.7137097 C26.3873852,27.8958462 25.7105366,30.0192928 24.7822581,32.0362903 C24.0341852,33.5842424 23.2050792,35.0917079 22.2983871,36.5524194 C21.4697651,37.8398955 20.8059774,39.2262635 20.3225806,40.6790323 L20.2774194,40.7919355 L20.2322581,40.9048387 L20.1870968,41.0177419 L20.1419355,41.1306452 L28.9709677,36.8854839 L28.9709677,36.8854839 C29.4225806,34.0629032 29.716129,31.4040323 29.8741935,28.9258065 C30.0322581,26.4475806 30.0717742,24.2685484 30.0266129,22.1516129 C29.9814516,20.0346774 29.8572581,18.2 29.6879032,16.45 C29.5185484,14.7 29.2983871,13.1419355 29.0612903,11.7137097 C28.8806452,10.6298387 28.6774194,9.56854839 28.4516129,8.52983871 C28.2258065,7.49112903 27.9774194,6.49758065 27.7120968,5.51532258 C27.4467742,4.53306452 27.1475806,3.59032258 26.8540323,2.66451613 C26.5604839,1.73870968 26.2443548,0.875 25.9056452,-7.10542736e-15" id="Path" fill-opacity="0.7" fill="#000000"></path>
            </g>
        </g>
    </g>
</svg>