<svg width="136" height="54" xmlns="http://www.w3.org/2000/svg"><g fill="none" fill-rule="evenodd"><path d="M18.685 50.491l.094.391c.098.463.087.907-.01 1.306-.095.388-.27.732-.504 1.013a2.225 2.225 0 01-.83.621c-.31.132-.656.195-1.026.174a3.109 3.109 0 01-1.057-.259 3.988 3.988 0 01-.945-.583 4.36 4.36 0 01-.775-.834 4.076 4.076 0 01-.539-1.041c-.009-.023-.016-.046-.024-.07l-.02-.069c-.008-.023-.014-.046-.02-.068a3.356 3.356 0 00-.019-.068l-.006-.011-.003-.01-.007-.01-.004-.012c.122.071.244.147.363.23.118.082.233.171.338.27.105.098.202.205.282.322.08.118.146.246.193.387l.017.058.015.056.013.057a1.1 1.1 0 01.012.057c.152.13.308.258.466.375.159.12.32.227.488.321.166.096.338.173.514.23.18.058.363.093.554.1.194.009.35-.024.48-.085a.975.975 0 00.329-.265c.093-.113.172-.245.254-.386.084-.142.168-.294.269-.443l-.033-.076-.031-.08-.028-.08-.022-.083a.618.618 0 01.052-.434c.067-.135.177-.26.307-.379.133-.117.286-.229.437-.33.153-.106.303-.202.426-.292zm5.458-17.686a28.192 28.192 0 00-2.088 3.504 30.22 30.22 0 00-1.663 4.006 31.319 31.319 0 00-1.588 9.262 13.37 13.37 0 01-1.069-1.6 13.97 13.97 0 01-.848-1.779 14.625 14.625 0 01-.607-1.93 15.57 15.57 0 01-.429-3.466c-.006-.466.008-.93.043-1.39a16.578 16.578 0 01.421-2.686zM7.32 37.75l3.402.108a22.76 22.76 0 01.674 1.953 26.008 26.008 0 01.837 3.878c.081.566.143 1.128.187 1.686.045.556.072 1.108.083 1.649.01.541.004 1.074-.02 1.592a40.535 40.535 0 00-1.077-3.386 33.645 33.645 0 00-1.25-2.966c-.44-.91-.9-1.746-1.378-2.504-.472-.75-.96-1.422-1.458-2.01zm-2.556-5.497l1.503 4.423a9.085 9.085 0 00-1.13-.882 6.414 6.414 0 00-1.122-.59 4.635 4.635 0 00-1.1-.295c-.362-.05-.719-.05-1.071 0 .126-.298.259-.551.399-.773.14-.223.29-.413.448-.584.157-.17.326-.32.506-.462.181-.141.374-.276.581-.412.037-.025.076-.049.113-.072a5.74 5.74 0 01.226-.125c.04-.02.078-.036.117-.054.044-.019.086-.037.13-.054l.132-.047a3.186 3.186 0 01.268-.073zm.766 0c.396.015.795.12 1.192.309.402.19.802.467 1.193.824.395.36.783.802 1.155 1.319.374.521.733 1.12 1.068 1.786l-3.178-.046zM0 6.353a106.214 106.214 0 001.3 6.94c.265 1.198.554 2.411.866 3.635a119.25 119.25 0 001.022 3.722 106.402 106.402 0 001.774 5.52c.313.887.633 1.754.958 2.597.327.85.66 1.675.998 2.476a3.664 3.664 0 00-.445-.178 3.058 3.058 0 00-.884-.147c-.145 0-.29.01-.433.033a90.264 90.264 0 01-.973-3.13c-.315-1.073-.62-2.184-.913-3.325a122.72 122.72 0 01-1.608-7.153A132.547 132.547 0 01.312 9.01C.199 8.115.094 7.228 0 6.352zm31.736 17.975a8.77 8.77 0 011.267.074c.42.055.84.146 1.277.278-.75.293-1.485.634-2.202 1.022-.73.393-1.44.837-2.13 1.325a22.456 22.456 0 00-2.04 1.631c-.667.6-1.309 1.246-1.922 1.936l.609-5.398a15.763 15.763 0 011.114-.329 13.555 13.555 0 011.135-.236l.025-.005.024-.003.024-.004.026-.004c.516-.08 1-.15 1.464-.2.459-.05.899-.082 1.329-.087z" fill="#202024"/><path d="M16.956 34.648c.011-.032.025-.064.038-.097l.039-.096.04-.095.04-.097c.368-1.266.96-2.35 1.635-3.505.66-1.13 1.398-2.319 2.08-3.798.661-1.44 1.265-3.146 1.688-5.323.409-2.107.644-4.64.592-7.77-.02-1.348-.05-2.654-.098-3.916a78.629 78.629 0 00-.212-3.602 45.346 45.346 0 00-.39-3.31A30.21 30.21 0 0021.774 0a48.714 48.714 0 011.522 4.67 52.943 52.943 0 011.13 5.217c.2 1.206.383 2.54.525 3.99.144 1.474.248 3.077.284 4.8a66.525 66.525 0 01-.13 5.684 72.822 72.822 0 01-.756 6.702l-.004.003v.007l-7.39 3.575" fill="#494C4F"/><path d="M70.678 28.382c3.052 0 5.595 2.544 5.595 6.614s-2.543 6.614-5.595 6.614c-2.29 0-3.307-1.272-3.307-1.272h-.254v5.851l-.254.255H63.81l-.255-.255V28.891l.255-.254h2.797l.255.254.254.763h.254s1.018-1.272 3.307-1.272zm19.202.369l.255.253 3.058 8.604h.255l3.059-8.604.255-.253h2.294l.255.253v2.53l-4.079 10.123c-1.019 2.531-2.039 4.05-5.607 4.05h-1.274l-.255-.254v-2.53l.255-.253h1.274c1.274 0 1.53-.253 1.784-1.013v-.253l-4.078-9.87v-2.53l.255-.253h2.294zm-35.424-5.345c4.83 0 6.863 2.28 6.863 5.322l-.254.253h-3.05l-.255-.253c0-1.52-.762-2.281-3.558-2.281-2.288 0-3.05.76-3.05 1.774 0 1.52 1.016 2.027 4.575 2.534 3.559.507 6.355 2.027 6.355 5.575 0 2.788-2.034 5.322-7.372 5.322-5.084 0-7.372-2.534-7.372-5.829l.254-.253h3.05l.255.253c0 1.774 1.017 2.788 4.067 2.788 2.288 0 3.559-.76 3.559-2.28 0-1.775-1.017-2.281-4.576-2.788-3.559-.507-6.355-1.774-6.355-5.322 0-2.534 2.034-4.815 6.864-4.815zm64.39 4.976c4.055 0 6.082 3.063 6.082 6.635v1.02l-.253.256h-7.856l-.253.255c0 .51.507 2.042 2.534 2.042.76 0 1.52-.255 1.774-.766l.253-.255h3.041l.254.255c-.254 1.531-1.52 3.828-5.322 3.828-4.308 0-6.335-3.062-6.335-6.635 0-3.572 2.027-6.635 6.082-6.635zm-38.083.369l.251.254.252.763h.251s.503-1.017 2.765-1.017h1.508l.251.254v2.544l-.251.254h-1.76c-2.01 0-2.764 1.017-2.764 3.306v6.104l-.252.255H78l-.252-.255V29.005l.252-.254h2.764zm49.024 0l.252.254.25.763h.252s.503-1.017 2.765-1.017h1.507l.252.254v2.544l-.252.254h-1.759c-2.01 0-2.764 1.017-2.764 3.306v6.104l-.251.255h-3.016l-.252-.255V29.005l.252-.254h2.764zm-25.885-5.16l.254.252v10.11h.254l5.078-5.055.508-.253h1.523l.254.253v2.528l-3.047 3.033v.253l3.301 3.79v2.529l-.254.252h-1.523l-.508-.252-3.555-3.792h-.254l-1.523 1.517-.254.505v1.77l-.254.252h-3.047l-.254-.252V23.843l.254-.253h3.047zm-33.987 7.844c-2.035 0-2.798 1.526-2.798 3.561s.763 3.562 2.798 3.562c2.034 0 2.797-1.527 2.797-3.562s-.763-3.561-2.797-3.561zm48.932.01c-2.028 0-2.281 1.786-2.281 2.04l.253.256h4.055l.253-.255c0-.255-.253-2.041-2.28-2.041z" fill="#202024"/></g></svg>