<svg width="157" height="65" xmlns="http://www.w3.org/2000/svg" xmlns:xlink="http://www.w3.org/1999/xlink"><defs><path d="M12.45 3.702c2.147 0 3.435 1.431 3.435 3.72 0 2.29-1.288 3.721-3.434 3.721-2.147 0-3.435-1.43-3.435-3.72s1.288-3.72 3.435-3.72Zm67.196 0c2.146 0 3.434 1.431 3.434 3.72 0 2.29-1.288 3.721-3.434 3.721-2.147 0-3.435-1.43-3.435-3.72s1.288-3.72 3.435-3.72Zm-54.733.143.143.143v4.15c0 .859.286 1.717 1.43 1.717 1.002 0 1.718-.715 1.718-2.432V3.988l.143-.143h1.145l.143.143v6.869l-.143.143H28.49l-.143-.143-.143-.572h-.143l-.024.032a2.152 2.152 0 0 1-1.693.826c-2.004 0-2.72-1.43-2.72-3.005v-4.15l.144-.143h1.145Zm39.936-.143c2.146 0 2.861 1.002 2.861 3.148v4.007l-.143.143h-1.001l-.143-.143-.143-.572h-.144s-.572.858-2.003.858c-1.574 0-2.432-.858-2.432-2.29 0-1.573 1.287-2.289 3.148-2.289.715 0 1.287.143 1.287.143l.144-.143v-.286c0-1.002-.43-1.288-1.431-1.288-1.002 0-1.431.286-1.431.859l-.143.143H62.13l-.143-.143c0-1.002.715-2.147 2.862-2.147Zm-19.617 0c2.29 0 3.291 1.717 3.291 3.72v.43l-.143.143h-4.722l-.143.143c0 .286.143 1.717 1.86 1.717.572 0 1.145-.143 1.43-.858l.144-.143h1.145l.143.143c-.143 1.144-1.145 2.146-2.862 2.146-2.29 0-3.434-1.574-3.434-3.72 0-2.004 1.001-3.72 3.29-3.72Zm-25.627 0c2.004 0 3.005 1.145 3.148 2.433l-.143.143h-1.144l-.144-.143c-.143-.573-.572-1.145-1.717-1.145-1.288 0-2.003.859-2.003 2.433 0 1.574.715 2.432 2.003 2.432 1.145 0 1.574-.572 1.717-1.144l.144-.144h1.144l.143.144c-.143 1.287-1.144 2.432-3.148 2.432-2.146 0-3.434-1.43-3.434-3.72s1.288-3.72 3.434-3.72Zm19.33 0c2.004 0 2.433 1.288 2.433 2.862v4.293l-.143.143h-1.144l-.144-.143V6.564c0-.858-.143-1.574-1.287-1.574-1.002 0-1.574.716-1.574 1.86v4.007l-.143.143h-1.145l-.143-.143V6.564c0-.858-.143-1.574-1.288-1.574-.716 0-1.574.43-1.574 1.86v4.007L32.64 11h-1.145l-.143-.143V3.988l.143-.143h1.002l.143.143.143.573h.143c.286-.43.859-.859 1.86-.859 1.145 0 1.574.573 1.86 1.002h.143c.43-.572 1.145-1.002 2.147-1.002ZM3.294.984c3.577 0 4.722 2.003 4.722 5.008S6.87 11 3.293 11H.288l-.143-.143v-9.73L.288.984Zm49.679 2.718c2.003 0 2.719 1.288 2.719 3.005v4.15l-.143.143h-1.145l-.143-.143v-4.15c0-.715-.143-1.717-1.431-1.717s-1.86.716-1.86 2.433v3.434l-.143.143H49.68l-.143-.143V3.988l.143-.143h1.001l.144.143.143.573h.143s.572-.859 1.86-.859Zm5.867-1.43.143.142v1.288l.143.143h1.574l.143.143V4.99l-.143.143h-1.574l-.143.143V9.14c0 .43.286.572.572.572H60.7l.143.143v1.002l-.143.143h-1.145c-1.001 0-2.003-.572-2.003-1.86V5.276l-.143-.143h-1.002l-.143-.143V3.988l.143-.143h1.002l.143-.143V2.414l.143-.143h1.145Zm11.766 0 .143.142v1.288l.143.143h1.574l.143.143V4.99l-.143.143h-1.574l-.143.143V9.14c0 .43.286.572.572.572h1.145l.143.143v1.002l-.143.143H71.32c-1.001 0-2.003-.572-2.003-1.86V5.276l-.143-.143h-1.002l-.143-.143V3.988l.143-.143h1.002l.143-.143V2.414l.143-.143h1.145Zm4.722 1.573.143.143v6.869l-.143.143h-1.145l-.143-.143V3.988l.143-.143h1.145Zm12.189-.143c2.003 0 2.719 1.288 2.719 3.005v4.15L90.09 11h-1.144l-.143-.143v-4.15c0-.715-.143-1.717-1.431-1.717s-1.86.716-1.86 2.433v3.434l-.144.143h-1.144l-.143-.143V3.988l.143-.143h1.001l.143.143.143.573h.144s.572-.859 1.86-.859ZM12.45 4.99c-1.288 0-2.004.859-2.004 2.433 0 1.574.716 2.432 2.004 2.432s2.003-.858 2.003-2.432c0-1.574-.715-2.433-2.003-2.433ZM64.99 7.71c-1.287 0-1.86.43-1.86 1.145 0 .715.43 1.001 1.288 1.001 1.145 0 1.86-.572 1.86-1.43v-.43l-.143-.143s-.429-.143-1.144-.143ZM79.647 4.99c-1.288 0-2.004.859-2.004 2.433 0 1.574.716 2.432 2.004 2.432s2.003-.858 2.003-2.432c0-1.574-.715-2.433-2.003-2.433ZM3.15 2.271H1.719l-.143.143V9.57l.143.143h1.43c2.72 0 3.435-1.288 3.435-3.72 0-2.433-.716-3.72-3.434-3.72Zm42.082 2.72c-1.574 0-1.717 1.287-1.717 1.716l.143.143h3.148l.143-.143c0-.43-.143-1.717-1.717-1.717ZM75.327 1.27l.143.143v1.145l-.143.143h-1.145l-.143-.143V1.413l.143-.143h1.145Z" id="a"/></defs><g fill-rule="nonzero" fill="none"><g fill="#000"><path d="M57.646 30.447c-4.291 0-6.223-2.145-6.223-4.933l.214-.213h2.573l.214.213c0 1.528.855 2.36 3.436 2.36 1.932 0 3-.641 3-1.932 0-1.527-.855-1.932-3.863-2.36-3.009-.427-5.345-1.527-5.345-4.504 0-2.146 1.718-4.078 5.795-4.078 4.078 0 5.796 1.932 5.796 4.505l-.214.214h-2.596l-.214-.214c0-1.29-.641-1.932-3-1.932-1.933 0-2.574.642-2.574 1.527 0 1.29.855 1.718 3.864 2.146 3.008.428 5.345 1.718 5.345 4.719 0 2.36-1.718 4.505-6.223 4.505M70.52 21.865c-1.718 0-2.36 1.282-2.36 3s.642 3.001 2.36 3.001 2.36-1.29 2.36-3c0-1.711-.642-3.001-2.36-3.001m.641 8.582a3.612 3.612 0 0 1-2.787-1.069h-.214v4.933l-.213.214h-2.543l-.214-.214V19.719l.214-.214h2.29l.214.214.214.641h.214a3.612 3.612 0 0 1 2.787-1.069c2.573 0 4.719 2.146 4.719 5.574 0 3.429-2.146 5.582-4.719 5.582M84.035 22.086h-1.527c-1.718 0-2.36.855-2.36 2.787v5.147l-.213.213h-2.573l-.214-.213V19.719l.214-.214h2.359l.214.214.214.641h.213s.428-.855 2.36-.855h1.29l.214.214v2.146l-.19.221ZM91.976 30.447c-.855 2.146-1.718 3.436-4.719 3.436h-1.069l-.213-.214v-2.145l.213-.214h1.07c1.076 0 1.29-.214 1.527-.855v-.214l-3.436-8.4V19.72l.213-.214h1.932l.214.214 2.573 7.292h.214l2.573-7.292.214-.214h1.901l.214.214v2.146l-3.42 8.582ZM113.86 23.583a1.947 1.947 0 0 0-3.863 0l.214.213h3.436l.214-.213Zm3.223 2.145-.214.214h-6.65l-.215.214a1.94 1.94 0 0 0 2.146 1.718 1.672 1.672 0 0 0 1.527-.641l.214-.214h2.573l.214.214c-.214 1.29-1.29 3.222-4.505 3.222-3.65 0-5.345-2.573-5.345-5.582 0-3.008 1.718-5.582 5.146-5.582 3.429 0 5.147 2.574 5.147 5.582l-.038.855ZM125.444 22.086h-1.527c-1.718 0-2.36.855-2.36 2.787v5.147l-.213.213h-2.574l-.213-.213V19.719l.213-.214h2.375l.214.214.214.641h.213s.428-.855 2.36-.855h1.29l.214.214v2.146l-.206.221ZM105.92 30.233h-1.283l-.435-.213-3.001-3.215h-.214l-1.291 1.283-.213.435v1.497l-.214.213h-2.573l-.214-.213V15.428l.214-.214h2.573l.214.214v8.582h.213l4.292-4.291.435-.214h1.283l.214.214v2.146l-2.574 2.58v.214l2.787 3.215v2.146z"/></g><path fill="#000" d="M51 38.838h105.03v21.464H51z"/><g transform="translate(58.127 43.069)" opacity=".98" fill="#FFF"><use xlink:href="#a"/><use xlink:href="#a"/></g><path d="m22.208 59.985-.508.345a5.323 5.323 0 0 0-.52.395c-.148.127-.272.28-.366.452a.734.734 0 0 0-.062.513v.096l.033.096.04.096.062.119c-.118.175-.22.355-.316.525a3.32 3.32 0 0 1-.305.457 1.129 1.129 0 0 1-.39.316 1.225 1.225 0 0 1-.564.102 2.5 2.5 0 0 1-.66-.119 3.342 3.342 0 0 1-.61-.27 5.318 5.318 0 0 1-.565-.385c-.186-.14-.372-.293-.564-.446v-.203a.694.694 0 0 1 0-.068 1.976 1.976 0 0 0-.232-.457 2.4 2.4 0 0 0-.338-.384 3.76 3.76 0 0 0-.401-.321 8.992 8.992 0 0 0-.43-.271V60.866l.03.085c.152.44.366.857.637 1.236.262.37.572.704.92.994a4.77 4.77 0 0 0 1.13.694c.396.174.82.278 1.252.305.417.027.834-.043 1.22-.203.39-.167.735-.424 1.005-.751.29-.35.497-.76.604-1.203a3.54 3.54 0 0 0 0-1.552l-.102-.486ZM4.996 38.46l-.136.063-.135.067-.13.08-.13.084c-.242.158-.468.322-.683.486-.212.171-.41.36-.592.564a4.59 4.59 0 0 0-.525.689c-.18.29-.337.594-.469.909a4.516 4.516 0 0 1 1.253 0 5.42 5.42 0 0 1 1.293.344c.46.187.901.42 1.315.694.469.307.912.651 1.327 1.028l-1.739-5.216-.158.04-.158.044-.152.057-.153.062M6.424 38.173l1.728 5.08 3.838.057a15.88 15.88 0 0 0-1.264-2.168A10.195 10.195 0 0 0 9.33 39.55a5.978 5.978 0 0 0-1.44-1c-.449-.22-.939-.346-1.439-.372M8.7 44.845a21.096 21.096 0 0 1 1.732 2.388c.601.96 1.148 1.953 1.637 2.975a38.362 38.362 0 0 1 1.485 3.528c.463 1.27.898 2.614 1.281 4.025 0-.615.034-1.247 0-1.89-.033-.644-.045-1.3-.101-1.96a35.617 35.617 0 0 0-.22-2.004 36.868 36.868 0 0 0-.345-2.02 66.767 66.767 0 0 0-.299-1.327c-.101-.435-.226-.853-.344-1.265a22.872 22.872 0 0 0-.384-1.197c-.136-.39-.277-.762-.418-1.129L8.7 44.845ZM0 7.525c.11 1.042.233 2.096.373 3.161.139 1.065.29 2.144.451 3.235a162.316 162.316 0 0 0 1.157 6.69c.286 1.479.59 2.926.91 4.34.32 1.416.652 2.802.999 4.161.35 1.355.71 2.672 1.083 3.952.373 1.28.75 2.52 1.13 3.72.17-.027.341-.04.513-.04a3.387 3.387 0 0 1 1.044.175c.18.061.355.133.525.215-.398-.952-.794-1.933-1.185-2.941a84.802 84.802 0 0 1-1.129-3.088 89.48 89.48 0 0 1-1.084-3.218c-.346-1.095-.68-2.217-1-3.364a144.843 144.843 0 0 1-1.213-4.426c-.376-1.464-.72-2.906-1.033-4.324a136.283 136.283 0 0 1-.858-4.195C.423 10.197.196 8.846 0 7.525M34.215 29.174a9.538 9.538 0 0 0-.677.13c-.226.05-.446.096-.672.152l-.666.181-.66.209-.712 6.43a29.118 29.118 0 0 1 2.258-2.303 26.741 26.741 0 0 1 2.422-1.942 24.884 24.884 0 0 1 2.53-1.581c.842-.46 1.713-.867 2.607-1.22-.494-.152-1-.264-1.513-.332a10.274 10.274 0 0 0-1.484-.108c-.508 0-1.033.045-1.575.102-.542.056-1.13.147-1.74.237h-.118v.045ZM28.723 38.952l-9.343 4.634a20.715 20.715 0 0 0-.316 1.564 18.688 18.688 0 0 0-.187 1.609 19.158 19.158 0 0 0 .045 3.336c.087.81.226 1.613.418 2.405.19.768.43 1.523.723 2.258a16.41 16.41 0 0 0 1.01 2.1c.379.66.805 1.293 1.276 1.891a36.66 36.66 0 0 1 1.925-10.918 35.666 35.666 0 0 1 1.982-4.736 33.369 33.369 0 0 1 2.467-4.143" fill="#000"/><path d="M25.906 0c.314 1.189.566 2.393.756 3.607.203 1.26.356 2.574.469 3.952.113 1.377.197 2.822.254 4.279.056 1.456.09 3.048.118 4.652a44.066 44.066 0 0 1-.705 9.224 27.097 27.097 0 0 1-2.016 6.322 48.95 48.95 0 0 1-2.484 4.516 18.302 18.302 0 0 0-1.975 4.127l-.046.113-.045.113-.045.113-.045.113 8.829-4.246c.452-2.822.745-5.481.903-7.96.158-2.477.198-4.656.153-6.773a74.48 74.48 0 0 0-.34-5.702 69.427 69.427 0 0 0-1.235-7.92 61.965 61.965 0 0 0-.74-3.015c-.265-.982-.564-1.925-.858-2.85-.294-.926-.61-1.79-.948-2.665" fill-opacity=".7" fill="#000"/></g></svg>