<?xml version="1.0" encoding="UTF-8"?>
<svg width="30px" height="20px" viewBox="0 0 30 20" version="1.1" xmlns="http://www.w3.org/2000/svg" xmlns:xlink="http://www.w3.org/1999/xlink">
    <title>1AE13181-9040-40BB-9160-6F6ED15B51B5@1x</title>
    <g id="Components" stroke="none" stroke-width="1" fill="none" fill-rule="evenodd">
        <g id="icon-/-business-user" transform="translate(-1.000000, -6.000000)" fill="#EB553B" fill-rule="nonzero">
            <path d="M29.5189474,6 L8.17597379,6 C7.76908868,6 7.39919312,6.14795822 7.14026623,6.44387467 C6.88133934,6.73979111 6.73338112,7.10968667 6.73338112,7.47958223 L6.73338112,10.4387467 C6.65940201,10.4387467 6.62241246,10.4387467 6.54843334,10.4387467 C4.55099734,10.4387467 2.88646734,12.0662871 2.88646734,14.1007127 C2.88646734,15.2843785 3.47830023,16.3570756 4.36604956,17.0228876 C2.40560311,17.6886996 1,19.2422609 1,21.0177596 L1,25.3455376 L1.55484333,25.9003809 L11.5420234,25.9003809 L12.0968667,25.3455376 L12.0968667,22.978206 L18.2741225,22.978206 L18.2741225,24.8276838 L12.984616,24.8276838 L12.984616,25.9373705 L25.2651485,25.9373705 L25.2651485,24.8276838 L19.4207987,24.8276838 L19.4207987,22.978206 L29.5559369,22.978206 C30.3697072,22.978206 31.0355192,22.312394 30.9985296,21.4986238 L30.9985296,7.47958223 C30.9985296,6.665812 30.3327176,6 29.5189474,6 Z M25.7090232,21.6835716 C23.637608,21.6835716 21.973078,20.0190416 21.973078,17.9476265 C21.973078,15.8762114 23.637608,14.2116813 25.7090232,14.2116813 C27.7804383,14.2116813 29.4449683,15.8762114 29.4449683,17.9476265 C29.4449683,20.0190416 27.7804383,21.6835716 25.7090232,21.6835716 Z M25.7090232,13.1019947 C23.0457752,13.1019947 20.8633914,15.2843785 20.8633914,17.9476265 C20.8633914,19.5381774 21.640172,20.9437805 22.8238378,21.8315298 L19.1618718,21.8315298 L18.7179971,21.0177596 L19.9386525,20.2039894 C20.1236003,20.0930207 20.1975794,19.8710834 20.1605898,19.649146 L19.975642,18.5764489 C19.9386525,18.3545116 19.7906943,18.1695638 19.5687569,18.1325742 L17.978206,17.7256891 L18.311112,15.8022322 L19.8276838,15.9501905 C20.0126316,15.98718 20.2345689,15.8762114 20.3455376,15.6912636 L21.0113496,14.7295351 C21.1593078,14.5445873 21.1223183,14.2856605 20.97436,14.0637231 L19.975642,12.8060782 L21.4552243,11.5484333 L22.5649109,12.7320991 C22.7128692,12.9170469 22.971796,12.9540365 23.1937334,12.8800573 L24.2664305,12.4361827 C24.4513783,12.3622036 24.5993365,12.1772558 24.5993365,11.9553185 L24.6733156,10.327778 L26.7447307,10.327778 L26.7447307,11.9553185 C26.7447307,12.1772558 26.8926889,12.3991931 27.1146263,12.4731722 L28.0023756,12.7690887 C28.1873234,12.8430678 28.4092607,12.7690887 28.5572189,12.6211305 L29.7778743,11.4374647 L29.8518534,11.5114438 L29.8518534,15.5433054 C29.0380832,14.0637231 27.4845218,13.1019947 25.7090232,13.1019947 Z M6.54843334,11.5484333 C7.95403646,11.5484333 9.10071268,12.6951096 9.10071268,14.1007127 C9.10071268,15.5063158 7.95403646,16.652992 6.54843334,16.652992 C5.14283023,16.652992 3.99615401,15.5063158 3.99615401,14.1007127 C3.99615401,12.6951096 5.14283023,11.5484333 6.54843334,11.5484333 Z M11.0241696,24.7906943 L2.14667622,24.7906943 L2.14667622,21.0177596 C2.14667622,19.2422609 4.14411223,17.7626787 6.5854229,17.7626787 C9.02673357,17.7626787 11.0241696,19.2052714 11.0241696,21.0177596 L11.0241696,24.7906943 Z M8.73081713,16.985898 C9.61856646,16.320086 10.1734098,15.2473889 10.1734098,14.0637231 C10.1734098,12.5101618 9.17469179,11.1785378 7.80607824,10.660684 L7.80607824,7.47958223 C7.80607824,7.29463445 7.95403646,7.10968667 8.17597379,7.10968667 L29.5189474,7.10968667 C29.7038952,7.10968667 29.8888429,7.25764489 29.8888429,7.47958223 L29.8888429,10.1058407 C29.7038952,10.0688511 29.5189474,10.1058407 29.3709892,10.2537989 L28.0393652,11.5484333 L27.8914069,11.5114438 L27.8914069,9.73594512 C27.8914069,9.44002867 27.6324801,9.18110178 27.3365636,9.18110178 L24.1554618,9.18110178 C23.8595454,9.18110178 23.6006185,9.40303912 23.6006185,9.69895556 L23.5266394,11.5114438 L23.1197543,11.659402 L21.9360885,10.4017571 C21.7511407,10.1798198 21.3812452,10.1798198 21.1593078,10.3647676 L18.8659554,12.325214 C18.644018,12.5101618 18.6070285,12.8430678 18.7919763,13.1019947 L19.8646734,14.4706082 L19.6057465,14.8405038 L17.9042269,14.6925456 C17.6083105,14.655556 17.3493836,14.8774934 17.312394,15.1364202 L16.8315298,18.0585951 C16.7945403,18.3545116 16.9424985,18.6134385 17.2384149,18.6874176 L18.976924,19.1312922 L19.0509031,19.5011878 L17.6822896,20.3889371 C17.4603523,20.5368954 17.3863731,20.8698014 17.4973418,21.1287283 L17.9042269,21.8315298 L12.1338562,21.8315298 L12.1338562,21.0177596 C12.1338562,19.2052714 10.7282531,17.65171 8.73081713,16.985898 Z M29.5189474,21.8315298 L28.5942085,21.8315298 C29.1120623,21.4616343 29.5559369,20.98077 29.8888429,20.4259267 L29.8888429,21.4616343 C29.8888429,21.6835716 29.7408847,21.8315298 29.5189474,21.8315298 Z" id="business-user"></path>
        </g>
    </g>
</svg>