<?xml version="1.0" encoding="UTF-8"?>
<svg width="24px" height="30px" viewBox="0 0 24 30" version="1.1" xmlns="http://www.w3.org/2000/svg" xmlns:xlink="http://www.w3.org/1999/xlink">
    <title>9BF6B00A-A1C3-444C-975D-209281A69403@1x</title>
    <g id="Components" stroke="none" stroke-width="1" fill="none" fill-rule="evenodd">
        <g id="icon-/-cloud-administrator" transform="translate(-4.000000, -1.000000)" fill="#EB553B" fill-rule="nonzero">
            <path d="M23.0831356,20.1681023 L23.2924627,20.1681023 L23.2924627,16.5626769 L22.8238199,16.0940341 L17.615636,16.0940341 C17.4503351,15.4544862 16.95387,14.9532475 16.3159333,14.7818342 L16.3159333,12.6260772 L22.5645042,12.6260772 L22.7707071,12.5635915 C24.1141498,11.8418815 24.8858483,10.1079031 24.5734198,8.53326324 C24.3160169,7.22507561 23.2714453,6.21540616 21.9552686,6.00259202 C22.0427485,3.03452083 20.3556344,1.53798809 18.6903902,1.12558241 C16.8439375,0.669436735 14.463232,1.43801096 13.182275,3.72498792 C12.4197673,3.25517694 11.4846879,3.15856358 10.6422309,3.46254794 C9.43938099,3.89369933 8.85826389,4.95908067 9.03634816,6.36500913 C8.09906253,6.69618339 7.3960983,7.66471188 7.23051117,8.96753892 C7.04930261,10.357846 7.54293971,12.0168415 9.03009959,12.5948343 L9.19881101,12.6260772 L15.3786477,12.6260772 L15.3786477,14.7818342 C14.7617769,14.945627 14.2750297,15.4193469 14.0945663,16.0315484 L8.97698674,16.0315484 L8.50834392,16.5001912 L8.50834392,20.1681023 L8.73016819,20.1681023 C6.3432141,20.208718 4,20.908558 4,22.211385 L4,28.953593 C4,30.2970358 6.49942837,31 8.95199246,31 C11.4045565,31 13.9039849,30.2970358 13.9039849,28.953593 L13.9039849,22.211385 C13.9039849,20.908558 11.5607708,20.208718 9.17381673,20.1681023 L9.44562956,20.1681023 L9.44562956,16.968834 L14.0726963,16.968834 C14.2658282,17.7787512 14.9827607,18.3551888 15.8152564,18.3699102 C16.647752,18.3846316 17.3846168,17.8339022 17.6062632,17.0313197 L22.3395557,17.0313197 L22.3395557,20.1556052 L22.6207414,20.1556052 C20.2337873,20.1962209 17.8905732,20.8960608 17.8905732,22.1988879 L17.8905732,28.9410959 C17.8905732,30.2845386 20.3900015,30.9875029 22.8425656,30.9875029 C25.2951297,30.9875029 27.7945581,30.2845386 27.7945581,28.9410959 L27.7945581,22.211385 C27.7945581,20.908558 25.451344,20.208718 23.0831356,20.1681023 Z M8.15842395,9.08626177 C8.26464966,8.27394755 8.71142248,7.28979763 9.6299624,7.18669621 L10.0329952,6.62744911 C9.76430668,5.47146349 10.0923567,4.66539784 10.9702809,4.35921787 C11.7638494,4.07490789 12.6948864,4.34047215 12.897965,4.75600212 L13.7508949,4.73100784 C14.703802,2.42840945 16.8345647,1.62859237 18.4654417,2.03474948 C19.837003,2.3752966 21.2210615,3.69062078 20.9961129,6.36188485 L21.4147672,6.86801909 C23.0800113,7.03360622 23.5392813,8.10211185 23.6611284,8.72384466 C23.8892453,9.86881328 23.4060546,11.0385786 22.4364085,11.6887916 L9.28941529,11.6887916 C8.33025965,11.2638887 8.03032825,10.0891574 8.15842395,9.08626177 Z M8.95199246,30.0595901 C6.30259839,30.0595901 4.93728564,29.281643 4.93728564,28.9504687 L4.93728564,27.9506974 C5.87457128,28.4787016 7.43671401,28.7505145 8.95199246,28.7505145 C10.4672709,28.7505145 12.0200408,28.4787016 12.9666993,27.9506974 L12.9666993,28.9504687 C12.9666993,29.2847673 11.6013865,30.0595901 8.95199246,30.0595901 Z M8.95199246,27.8132288 C6.30259839,27.8132288 4.93728564,27.0352817 4.93728564,26.7041075 L4.93728564,25.7043361 C5.87457128,26.2292161 7.43671401,26.5010289 8.95199246,26.5010289 C10.4672709,26.5010289 12.0200408,26.2292161 12.9666993,25.7043361 L12.9666993,26.7041075 C12.9666993,27.038406 11.6013865,27.8163531 8.95199246,27.8163531 L8.95199246,27.8132288 Z M8.95199246,25.5637433 C6.30259839,25.5637433 4.93728564,24.7857962 4.93728564,24.454622 L4.93728564,23.4548506 C5.87457128,23.9828549 7.43671401,24.2546677 8.95199246,24.2546677 C10.4672709,24.2546677 12.0200408,23.9828549 12.9666993,23.4548506 L12.9666993,24.454622 C12.9666993,24.7889205 11.6013865,25.5668676 8.95199246,25.5668676 L8.95199246,25.5637433 Z M12.9666993,22.211385 C12.9666993,22.5425593 11.6013865,23.3205063 8.95199246,23.3205063 C6.30259839,23.3205063 4.93728564,22.5425593 4.93728564,22.211385 C4.93728564,21.8802107 6.30259839,21.1022637 8.95199246,21.1022637 C11.6013865,21.1022637 12.9666993,21.8802107 12.9666993,22.211385 Z M15.8472905,17.434358 C15.486867,17.4356172 15.1612295,17.2194766 15.0224242,16.8868511 C14.883619,16.5542255 14.9590265,16.1707281 15.2134376,15.9154212 C15.4678488,15.6601142 15.8510788,15.5833592 16.1841901,15.7209944 C16.5173015,15.8586297 16.7345875,16.1835055 16.7345875,16.5439312 C16.7328868,17.0337741 16.3371244,17.43093 15.8472905,17.434358 L15.8472905,17.434358 Z M22.8425656,21.1022637 C25.4919597,21.1022637 26.8572724,21.8802107 26.8572724,22.211385 C26.8572724,22.5425593 25.4919597,23.3205063 22.8425656,23.3205063 C20.1931715,23.3205063 18.8278588,22.5425593 18.8278588,22.211385 C18.8278588,21.8802107 20.1931715,21.1022637 22.8425656,21.1022637 Z M22.8425656,30.0627144 C20.1931715,30.0627144 18.8278588,29.2847673 18.8278588,28.953593 L18.8278588,27.9538217 C19.7651444,28.4818259 21.3272872,28.7536388 22.8425656,28.7536388 C24.3578441,28.7536388 25.9106139,28.4818259 26.8572724,27.9538217 L26.8572724,28.953593 C26.8572724,29.2847673 25.4919597,30.0595901 22.8425656,30.0595901 L22.8425656,30.0627144 Z M22.8425656,27.8163531 C20.1931715,27.8163531 18.8278588,27.038406 18.8278588,26.7072318 L18.8278588,25.7074604 C19.7651444,26.2323404 21.3272872,26.5041532 22.8425656,26.5041532 C24.3578441,26.5041532 25.9106139,26.2323404 26.8572724,25.7074604 L26.8572724,26.7072318 C26.8572724,27.038406 25.4919597,27.8163531 22.8425656,27.8163531 Z M22.8425656,25.5668676 C20.1931715,25.5668676 18.8278588,24.7889205 18.8278588,24.4577462 L18.8278588,23.4579749 C19.7651444,23.9859791 21.3272872,24.257792 22.8425656,24.257792 C24.3578441,24.257792 25.9106139,23.9859791 26.8572724,23.4579749 L26.8572724,24.4577462 C26.8572724,24.7889205 25.4919597,25.5668676 22.8425656,25.5668676 L22.8425656,25.5668676 Z" id="cloud"></path>
        </g>
    </g>
</svg>