<?xml version="1.0" encoding="UTF-8"?>
<svg width="30px" height="21px" viewBox="0 0 30 21" version="1.1" xmlns="http://www.w3.org/2000/svg" xmlns:xlink="http://www.w3.org/1999/xlink">
    <title>FD2CBEB8-D919-4D22-9F10-31093F455FBB@1x</title>
    <g id="Components" stroke="none" stroke-width="1" fill="none" fill-rule="evenodd">
        <g id="icon-/-developer" transform="translate(-1.000000, -5.000000)" fill="#EB553B" fill-rule="nonzero">
            <path d="M29.5375,5 L8.1625,5 C7.3375,5 6.7,5.675 6.7,6.5 L6.7,9.575 C6.6625,9.575 6.5875,9.575 6.55,9.575 C4.5625,9.575 2.9125,11.225 2.9125,13.2125 C2.9125,14.4125 3.475,15.425 4.375,16.1 C2.3875,16.7375 1,18.2375 1,20 L1,24.5 L1.5625,25.0625 L11.5375,25.0625 L12.1,24.5 L12.1,22.025 L18.2875,22.025 L18.2875,23.8625 L12.9625,23.8625 L12.9625,24.9875 L25.2625,24.9875 L25.2625,23.8625 L19.4125,23.8625 L19.4125,22.025 L29.5375,22.025 C30.3625,22.025 31,21.35 31,20.525 L31,6.5 C31,5.675 30.3625,5 29.5375,5 Z M6.55,10.7 C7.9375,10.7 9.0625,11.825 9.0625,13.2125 C9.0625,14.6 7.9375,15.725 6.55,15.725 C5.1625,15.725 4.0375,14.6 4.0375,13.2125 C4.0375,11.825 5.1625,10.7 6.55,10.7 Z M10.975,23.9375 L2.125,23.9375 L2.125,20 C2.125,18.275 4.1125,16.8875 6.55,16.8875 C8.9875,16.8875 10.975,18.275 10.975,20 L10.975,23.9375 L10.975,23.9375 Z M29.875,20.525 C29.875,20.75 29.725,20.9 29.5375,20.9 L12.1,20.9 L12.1,20 C12.1,18.275 10.7125,16.775 8.725,16.1 C9.5875,15.425 10.1875,14.375 10.1875,13.2125 C10.1875,11.6375 9.2125,10.325 7.825,9.8 L7.825,6.5 C7.825,6.275 7.975,6.125 8.1625,6.125 L29.5375,6.125 C29.725,6.125 29.875,6.275 29.875,6.5 L29.875,20.525 Z M22.525,10.1375 C22.525,10.5875 22.15,10.9625 21.7,10.9625 C21.25,10.9625 20.875,10.5875 20.875,10.1375 C20.875,9.6875 21.25,9.3125 21.7,9.3125 C22.15,9.3125 22.525,9.6875 22.525,10.1375 Z M21.25,12.6875 C21.25,13.1375 20.875,13.5125 20.425,13.5125 C19.975,13.5125 19.6,13.1375 19.6,12.6875 C19.6,12.2375 19.975,11.8625 20.425,11.8625 C20.875,11.8625 21.25,12.2375 21.25,12.6875 Z M20.125,15.275 C20.125,15.725 19.75,16.1 19.3,16.1 C18.85,16.1 18.475,15.725 18.475,15.275 C18.475,14.825 18.85,14.45 19.3,14.45 C19.75,14.45 20.125,14.825 20.125,15.275 Z M18.85,17.825 C18.85,18.275 18.475,18.65 18.025,18.65 C17.575,18.65 17.2,18.275 17.2,17.825 C17.2,17.375 17.575,17 18.025,17 C18.475,17 18.85,17.375 18.85,17.825 Z M27.7,13.5125 L27.7,14.3 L24.7,17.4125 L23.875,16.625 L26.5,13.925 L23.8,11.3 L24.5875,10.475 L27.7,13.5125 Z M16.0375,11.3375 L13.3375,13.9625 L15.9625,16.6625 L15.1375,17.45 L12.1375,14.3375 L12.1375,13.55 L15.25,10.55 L16.0375,11.3375 Z" id="icon-person-developer"></path>
        </g>
    </g>
</svg>