<?xml version="1.0" encoding="UTF-8"?>
<svg width="18px" height="13px" viewBox="0 0 18 13" version="1.1" xmlns="http://www.w3.org/2000/svg" xmlns:xlink="http://www.w3.org/1999/xlink">
    <title>19574E49-5F04-425A-ABED-CBD9110CAF14@1x</title>
    <g id="Components" stroke="none" stroke-width="1" fill="none" fill-rule="evenodd">
        <g id="icon-/-email" transform="translate(-3.000000, -6.000000)" fill="#ADAFB3" fill-rule="nonzero">
            <path d="M20.4399045,6 L3.56008986,6 L3,6.56008986 L3,17.5786257 L3.56008986,18.1387156 L20.4399101,18.1387156 L21,17.5786257 L21,6.56008986 L20.4399045,6 Z M19.1014522,7.12017973 L11.9291654,13.936703 L4.75663784,7.12017973 L19.1014522,7.12017973 Z M4.12017973,8.06045859 L8.45718518,12.1820255 L4.12017973,16.3121281 L4.12017973,8.06045859 Z M5.00294296,17.0185359 L9.2701052,12.9545686 L11.5435548,15.1151041 L12.3147985,15.1151041 L14.7453645,12.8050078 L19.1881485,17.0185359 L5.00294296,17.0185359 Z M19.8798147,16.1303006 L15.5586038,12.0320782 L19.8798147,7.92507367 L19.8798147,16.1303006 Z" id="Shape"></path>
        </g>
    </g>
</svg>