<?xml version="1.0" encoding="UTF-8"?>
<svg width="22px" height="20px" viewBox="0 0 22 20" version="1.1" xmlns="http://www.w3.org/2000/svg" xmlns:xlink="http://www.w3.org/1999/xlink">
    <title>4F0073A9-95FD-40FD-9C48-109A1705BF6D@1x</title>
    <g id="Components" stroke="none" stroke-width="1" fill="none" fill-rule="evenodd">
        <g id="icon-/-error" transform="translate(-1.000000, -2.000000)" fill="#EB553B" fill-rule="nonzero">
            <path d="M12.011302,2 C12.6088742,2 13.1622735,2.32731507 13.4677548,2.86143745 L13.4677548,2.86143745 L22.7652362,19.3038329 L22.7652362,19.3419381 C23.2392003,20.1787066 22.9729318,21.2565409 22.1698309,21.7520922 C21.9092844,21.9132638 21.6119352,21.9987975 21.3087834,21.9998898 L21.3087834,21.9998898 L2.71382062,21.9998898 C2.09445838,22.0070765 1.52060951,21.6623678 1.21721253,21.1007697 C0.913815545,20.5391717 0.92921243,19.8501669 1.25736787,19.3038329 L1.25736787,19.3038329 L10.5548493,2.86143745 C10.8603305,2.32731507 11.4137298,2 12.011302,2 Z M12.0204621,3.18533168 L11.8739008,3.18533168 C11.7281564,3.2220641 11.6027266,3.31818108 11.5258178,3.45206811 L11.5258178,3.45206811 L2.22833637,19.8944636 C2.12743559,20.0761858 2.12682421,20.2999404 2.22673031,20.4822561 C2.32663641,20.6645718 2.51205669,20.7780696 2.71382062,20.7804103 L2.71382062,20.7804103 L21.2996233,20.7804103 C21.5571751,20.7808418 21.7827634,20.6009762 21.8492281,20.3421997 L21.8492281,20.3421997 C21.8935261,20.1930565 21.8704736,20.0355121 21.7942677,19.9039899 L21.7942677,19.9039899 L12.5059463,3.47112071 L12.4481666,3.38849855 C12.3415745,3.26093912 12.186101,3.18561987 12.0204621,3.18533168 L12.0204621,3.18533168 Z M12.0389965,16.1294462 L12.1120629,16.141101 L12.2219839,16.141101 L12.3227447,16.1982588 L12.4051855,16.2649429 C12.5090662,16.377998 12.5679699,16.5277415 12.5700669,16.6841001 C12.5694189,16.8379602 12.5101237,16.9852728 12.4051855,17.0937311 C12.353221,17.150375 12.2909467,17.1957097 12.2219839,17.2270993 C12.0106982,17.3202579 11.7659965,17.2670819 11.6082585,17.0937311 C11.5024568,16.9858795 11.4430036,16.8381741 11.4433753,16.6841001 C11.445474,16.5277415 11.5043778,16.377998 11.6082585,16.2649429 L11.6082585,16.2649429 L11.6906992,16.1982588 L11.7914601,16.141101 L11.892221,16.141101 C11.9645376,16.1236188 12.0397463,16.1236188 12.1120629,16.141101 Z M12.011302,9.06305937 C12.3076537,9.06739065 12.5509748,9.30799477 12.5700669,9.61558483 L12.5700669,9.61558483 L12.5700669,13.1688951 C12.5979748,13.3960428 12.4971163,13.6194968 12.3112586,13.7422898 C12.125401,13.8650828 11.888043,13.8650828 11.7021853,13.7422898 C11.5163277,13.6194968 11.4154692,13.3960428 11.443377,13.1688951 L11.443377,13.1688951 L11.443377,9.65369003 C11.443377,9.32749373 11.6976457,9.06305937 12.011302,9.06305937 Z" id="error"></path>
        </g>
    </g>
</svg>