<?xml version="1.0" encoding="UTF-8"?>
<svg width="7px" height="14px" viewBox="0 0 7 14" version="1.1" xmlns="http://www.w3.org/2000/svg" xmlns:xlink="http://www.w3.org/1999/xlink">
    <title>1FA59A83-9E4E-45F6-AFF1-9A892468C8C3@1x</title>
    <g id="Components" stroke="none" stroke-width="1" fill="none" fill-rule="evenodd">
        <g id="icon-/-social-/-facebook" transform="translate(-9.000000, -5.000000)" fill="#999DA1" fill-rule="nonzero">
            <path d="M13.2318526,9.47166391 L13.2318526,8.29578192 C13.2318526,8.11925895 13.2399739,7.98253051 13.2564776,7.88594466 C13.2729233,7.78921378 13.3103394,7.69407817 13.368407,7.60016075 C13.4263875,7.50630135 13.5202759,7.44150471 13.6499272,7.40559682 C13.7797525,7.36963092 13.9522728,7.35170597 14.1676621,7.35170597 L15.3434861,7.35170597 L15.3434861,5 L13.4637166,5 C12.3760381,5 11.5948529,5.25805535 11.120045,5.77416606 C10.645295,6.29039279 10.4079491,7.05078158 10.4079491,8.0556225 L10.4079491,9.47163491 L9,9.47163491 L9,11.8235149 L10.4078621,11.8235149 L10.4078621,18.6470588 L13.2318235,18.6470588 L13.2318235,11.8235439 L15.111477,11.8235439 L15.3599318,9.47166391 L13.2318526,9.47166391 Z" id="socials-facebook"></path>
        </g>
    </g>
</svg>