<?xml version="1.0" encoding="UTF-8"?>
<svg width="22px" height="22px" viewBox="0 0 22 22" version="1.1" xmlns="http://www.w3.org/2000/svg" xmlns:xlink="http://www.w3.org/1999/xlink">
    <title>1D94B069-242D-434D-96E6-CBB50DFF9431@1x</title>
    <g id="Components" stroke="none" stroke-width="1" fill="none" fill-rule="evenodd">
        <g id="icon-/-info" transform="translate(-1.000000, -1.000000)" fill="#0064B4" fill-rule="nonzero">
            <path d="M12,1 C18.0731605,1.00475767 22.9952423,5.92683953 23,12 C23,18.0751322 18.0751322,23 12,23 C5.92486775,23 1,18.0751322 1,12 C1,5.92486775 5.92486775,1 12,1 Z M12,2.29411765 C6.63958919,2.29411765 2.29411765,6.63958919 2.29411765,12 C2.29411765,17.3604108 6.63958919,21.7058824 12,21.7058824 C17.3584393,21.7011256 21.7011256,17.3584393 21.7058824,12 C21.7058824,6.63958919 17.3604108,2.29411765 12,2.29411765 Z M12,10.7058824 C12.3573607,10.7058824 12.6470588,10.9955805 12.6470588,11.3529412 L12.6470588,11.3529412 L12.6470588,15.7529412 C12.6470588,16.1103019 12.3573607,16.4 12,16.4 C11.6426393,16.4 11.3529412,16.1103019 11.3529412,15.7529412 L11.3529412,15.7529412 L11.3529412,11.3529412 C11.3529412,10.9955805 11.6426393,10.7058824 12,10.7058824 Z M11.7498039,7.64313725 C11.9926508,7.55049161 12.2670498,7.60403286 12.4572549,7.78117647 C12.7105665,8.0367568 12.7105665,8.44873339 12.4572549,8.70431373 C12.2724479,8.89177622 11.9915279,8.94658989 11.7498039,8.84235294 C11.6728027,8.80961272 11.6025827,8.76279936 11.5427451,8.70431373 C11.2894335,8.44873339 11.2894335,8.0367568 11.5427451,7.78117647 C11.6047311,7.72539873 11.674476,7.67890208 11.7498039,7.64313725 Z" id="info"></path>
        </g>
    </g>
</svg>