<?xml version="1.0" encoding="UTF-8"?>
<svg width="16px" height="16px" viewBox="0 0 16 16" version="1.1" xmlns="http://www.w3.org/2000/svg" xmlns:xlink="http://www.w3.org/1999/xlink">
    <title>47DAEB0C-70DB-47CB-BB7C-6BF39F18771C@1x</title>
    <g id="Components" stroke="none" stroke-width="1" fill="none" fill-rule="evenodd">
        <g id="icon-/-social-/-instagram" transform="translate(-4.000000, -4.000000)" fill="#AEB2B6" fill-rule="nonzero">
            <path d="M15.5844838,4 C18.0192829,4 20,5.98081177 20,8.41542156 L20,8.41542156 L20,15.5845784 C20,18.0191882 18.0192829,20 15.5844838,20 L15.5844838,20 L8.41532692,20 C5.98071713,20 4,18.0192829 4,15.5845784 L4,15.5845784 L4,8.41542156 C4,5.98081177 5.98071713,4 8.41532692,4 L8.41532692,4 Z M15.5844838,5.41959754 L8.41532692,5.41959754 C6.76348322,5.41959754 5.41959754,6.76357786 5.41959754,8.41542156 L5.41959754,8.41542156 L5.41959754,15.5845784 C5.41959754,17.2365168 6.76348322,18.5804025 8.41532692,18.5804025 L8.41532692,18.5804025 L15.5845784,18.5804025 C17.2365168,18.5804025 18.5804971,17.2365168 18.5804971,15.5845784 L18.5804971,15.5845784 L18.5804971,8.41542156 C18.5804971,6.76357786 17.2364221,5.41959754 15.5844838,5.41959754 L15.5844838,5.41959754 Z M12,8 C14.2056332,8 16,9.79440797 16,12.0000918 C16,14.2056839 14.2056332,16 12,16 C9.79436678,16 8,14.2056839 8,12.0000918 C8,9.79440797 9.79436678,8 12,8 Z M12,9.37725541 C10.5538186,9.37725541 9.37731561,10.5537854 9.37731561,12 C9.37731561,13.4461228 10.5539104,14.6225609 12,14.6225609 C13.4460896,14.6225609 14.6226844,13.4461228 14.6226844,12 C14.6226844,10.5537854 13.4461814,9.37725541 12,9.37725541 Z M16,7 C16.2636364,7 16.5218182,7.10636364 16.7072727,7.29272727 C16.8936364,7.47818182 17,7.73636364 17,8 C17,8.26272727 16.8936364,8.52090909 16.7072727,8.70727273 C16.5209091,8.89272727 16.2636364,9 16,9 C15.7372727,9 15.4790909,8.89272727 15.2936364,8.70727273 C15.1072727,8.52090909 15,8.26281818 15,8 C15,7.73636364 15.1071818,7.47818182 15.2936364,7.29272727 C15.4791818,7.10636364 15.7372727,7 16,7 Z" id="socials-instagram"></path>
        </g>
    </g>
</svg>