<?xml version="1.0" encoding="UTF-8"?>
<svg width="14px" height="20px" viewBox="0 0 14 20" version="1.1" xmlns="http://www.w3.org/2000/svg" xmlns:xlink="http://www.w3.org/1999/xlink">
    <title>30EE2178-091E-43EE-88F2-3EBF032CA845@1x</title>
    <g id="Components" stroke="none" stroke-width="1" fill="none" fill-rule="evenodd">
        <g id="icon-/-location" transform="translate(-5.000000, -2.000000)" fill="#ADAFB3" fill-rule="nonzero">
            <path d="M12.0395587,2.00095901 C14.1157145,1.96641478 16.0975054,2.86663582 17.4374095,4.45291231 C18.9689919,6.19415451 19.1466697,9.07253447 18.8232962,10.9772402 C18.6456184,12.0788424 17.1175895,14.7084735 15.5895607,17.1604268 C14.6158864,18.6920092 13.2797496,20.7601785 12.7076271,21.6272461 C12.5569541,21.859692 12.298799,22 12.0217909,22 C11.7447829,22 11.4866278,21.859692 11.3359547,21.6272461 C11.0598435,21.1794981 10.3954352,20.1136091 9.69742093,18.9780705 L9.24755813,18.2438837 C9.09838742,17.9995545 8.95116361,17.7574241 8.80937675,17.5228895 L8.80937675,17.5228895 L8.62814542,17.2101766 C8.46626122,16.9416857 8.3034996,16.6705626 8.14161541,16.399342 L7.81953687,15.8575218 C6.64668481,13.8758789 5.58393286,11.9798693 5.32333879,11.1691322 C4.57709214,8.96592781 5.21673213,6.1230834 6.28279878,4.80826786 C7.71276005,3.093327 9.80778583,2.07167862 12.0395587,2.00095901 Z M12.3011844,3.10177732 L12.0360051,3.10256122 C10.1280618,3.16663049 8.33520097,4.0308152 7.09656299,5.48344341 C6.20817411,6.51397451 5.67514079,8.96592781 6.31478078,10.8137767 C6.776743,12.2351989 10.0460141,17.6010677 12.0360051,20.7637321 C14.4808513,17.0573737 17.5795517,12.1641278 17.7927651,10.8493122 C18.1161386,9.00146336 17.8673897,6.54951006 16.6556273,5.16362341 C15.5056007,3.81478263 13.8079791,3.05738222 12.0360051,3.10256122 Z M11.6380069,5.35551541 C12.7178616,5.26490285 13.7827909,5.65464795 14.549047,6.420904 C15.315303,7.18716005 15.7050481,8.25208939 15.6144355,9.33194403 C15.4392385,11.2596118 13.7934621,12.7176158 11.8587326,12.6591457 C9.92400301,12.6006755 8.36927545,11.0459479 8.3108053,9.1112184 C8.25233515,7.17648885 9.71033912,5.53071246 11.6380069,5.35551541 Z M13.5373903,6.92173428 C12.8795656,6.43238538 12.0297338,6.281316 11.2435623,6.51397451 C10.4072559,6.76125328 9.7531524,7.41535676 9.50587363,8.25166315 C9.27321512,9.03783473 9.4242845,9.88766647 9.9136334,10.5454912 C10.4029823,11.2033159 11.1734933,11.5923516 11.9933625,11.5955589 L11.9933625,11.5955589 L12.0040231,11.5955589 C13.4237549,11.5688834 14.5666292,10.421293 14.587458,9.00146336 C14.5842507,8.1815942 14.1952151,7.41108318 13.5373903,6.92173428 Z" id="location"></path>
        </g>
    </g>
</svg>