<?xml version="1.0" encoding="UTF-8"?>
<svg width="20px" height="20px" viewBox="0 0 20 20" version="1.1" xmlns="http://www.w3.org/2000/svg" xmlns:xlink="http://www.w3.org/1999/xlink">
    <title>37ED4CF0-F825-4800-9863-0199F5BCE9B1@1x</title>
    <g id="Components" stroke="none" stroke-width="1" fill="none" fill-rule="evenodd">
        <g id="icon-/-note" transform="translate(-2.000000, -2.000000)" fill="#191919" fill-rule="nonzero">
            <path d="M12.7424606,2.55700851 C13.0255258,2.55700851 13.2549955,2.78647821 13.2549955,3.06954344 C13.2549955,3.35260866 13.0255258,3.58207836 12.7424606,3.58207836 L12.7424606,3.58207836 L3.02513182,3.58207836 L3.02513182,20.9749301 L18.3761778,20.9749301 L18.3761778,13.2994072 C18.3761778,13.0186433 18.6037819,12.7910392 18.8845458,12.7910392 C19.1653097,12.7910392 19.3929138,13.0186433 19.3929138,13.2994072 L19.3929138,13.2994072 L19.3929138,21.491632 C19.3929138,21.7723959 19.1653097,22 18.8845458,22 L18.8845458,22 L2.50842994,22 C2.37214593,22 2.24156136,21.9453158 2.14598064,21.8481682 C2.05039992,21.7510205 1.99782781,21.6195638 1.99999356,21.4832981 L1.99999356,21.4832981 L1.99999356,3.06537649 C1.99999356,2.78461261 2.22766606,2.55700851 2.50842994,2.55700851 L2.50842994,2.55700851 Z M16.9510807,2.74868824 C17.950084,1.75043725 19.5689906,1.75043725 20.5679938,2.74868824 L20.5679938,2.74868824 L21.2513737,3.43206814 C22.2496247,4.43107142 22.2496247,6.04997798 21.2513737,7.04898126 L21.2513737,7.04898126 L11.6590535,16.6413015 C11.1832609,17.126764 10.5303128,17.3975719 9.85059689,17.3914574 L9.85059689,17.3914574 L7.1087434,17.3914574 C6.82797952,17.3914574 6.60027062,17.1637485 6.60027062,16.8829847 L6.60027062,16.8829847 L6.60027062,14.1494651 C6.59415613,13.4697492 6.86496411,12.8168011 7.35042654,12.3410085 L7.35042654,12.3410085 Z M19.8346105,3.47373764 C19.2340973,2.88063574 18.2683095,2.88063574 17.6677962,3.47373764 L17.6677962,3.47373764 L8.07547594,13.0660579 C7.78701175,13.3527441 7.6250007,13.7427707 7.62544436,14.1494651 L7.62544436,14.1494651 L7.62544436,16.3746167 L9.85059689,16.3746167 C10.2569254,16.3732323 10.6462802,16.2115003 10.934004,15.924586 L10.934004,15.924586 L20.5263243,6.32393185 C21.11564,5.72529294 21.11564,4.75575645 20.5179904,4.15711754 L20.5179904,4.15711754 Z" id="note"></path>
        </g>
    </g>
</svg>