<?xml version="1.0" encoding="UTF-8"?>
<svg width="16px" height="16px" viewBox="0 0 16 16" version="1.1" xmlns="http://www.w3.org/2000/svg" xmlns:xlink="http://www.w3.org/1999/xlink">
    <title>FF043E84-F722-48B6-B547-A6704924E8AE@1x</title>
    <g id="Components" stroke="none" stroke-width="1" fill="none" fill-rule="evenodd">
        <g id="icon-/-rss" transform="translate(-4.000000, -4.000000)" fill="#999DA1" fill-rule="nonzero">
            <g id="Mask" transform="translate(4.000000, 4.000000)">
                <path d="M1.36323961,5.07914002 C1.53687886,5.06644217 5.6579172,4.79597796 8.4837353,7.49935028 C10.2715766,9.20848088 11.105045,11.6591659 10.9764233,14.7828371 C10.9474526,15.4632094 10.3799918,15.999892 9.6902066,15.9992921 L9.6902066,15.9992921 L9.6361855,15.9992921 C9.2935477,15.9851545 8.9708157,15.8365204 8.739687,15.5864089 C8.5085582,15.3362974 8.3881731,15.0054212 8.4052761,14.6672866 C8.5068872,12.3131052 7.9345208,10.5163594 6.7061838,9.33418958 C5.1205359,7.80638428 2.79238072,7.62109718 1.90808101,7.60809458 L1.74148482,7.60751888 C1.62239915,7.60852588 1.55433466,7.61236108 1.54974103,7.61236108 C0.841159052,7.66320408 0.224990092,7.13733968 0.173489152,6.43780998 C0.121988202,5.73828029 0.654657632,5.12998303 1.36323961,5.07914002 Z M1.55899252,0.00027239 C2.95547955,0.02537758 8.1427105,0.35365701 11.9037856,3.79411759 C14.7386072,6.38701858 16.1135729,10.075744 15.9926685,14.7625205 C15.9745335,15.4508775 15.4039522,15.9995239 14.7064518,15.9992913 L14.7064518,15.9992913 L14.6730102,15.9992913 C14.3313878,15.9906549 14.0072902,15.8481609 13.7722509,15.6032598 C13.5372116,15.3583587 13.4105545,15.0311853 13.4202351,14.6939521 C13.5179876,10.9201511 12.5070212,7.96790088 10.4143466,5.90703984 C7.2098861,2.74703334 2.38999825,2.55156159 1.51164513,2.54018727 L1.37738799,2.53957001 C0.667030122,2.58760789 0.0517249519,2.05804817 0.00306543194,1.35676528 C-0.0455940781,0.65548238 0.490818432,0.04803787 1.2011763,8.8817842e-16 L1.2011763,8.8817842e-16 L1.55899252,0.00027239 Z M2.42308218,10.9163417 C3.73724425,10.9163417 4.8025831,11.9680706 4.8025831,13.265444 C4.8025831,14.5628173 3.73724425,15.6145462 2.42308218,15.6145462 C1.10892011,15.6145462 0.0435812619,14.5628173 0.0435812619,13.265444 C0.0435812619,11.9680706 1.10892011,10.9163417 2.42308218,10.9163417 Z" id="rss"></path>
            </g>
        </g>
    </g>
</svg>