<?xml version="1.0" encoding="UTF-8"?>
<svg width="16px" height="16px" viewBox="0 0 16 16" version="1.1" xmlns="http://www.w3.org/2000/svg" xmlns:xlink="http://www.w3.org/1999/xlink">
    <title>8AD1F698-9D81-41EB-9B1F-98A998A64C43@1x</title>
    <defs>
        <path d="M19.73794,18.5696165 L15.7988342,14.6107633 C17.8137468,12.2914436 17.8903766,8.93033163 15.9831246,6.52747754 C14.0758725,4.12462345 10.6971657,3.32560929 7.8575243,4.6058933 C5.01788286,5.88617731 3.48024176,8.90178176 4.15958371,11.8582528 C4.83892567,14.8147239 7.55272984,16.9177376 10.6861305,16.9158828 C12.0568085,16.9197241 13.3948097,16.5115487 14.5148484,15.7478807 L18.4830036,19.7235801 C18.6963511,19.9509085 19.0207444,20.0480828 19.3297128,19.9772178 C19.6386813,19.9063529 19.8833138,19.678667 19.9682361,19.3829276 C20.0531583,19.0871881 19.9649267,18.770212 19.73794,18.555578 L19.73794,18.5696165 Z M10.6861305,5.68509365 C13.4135373,5.68509365 15.6245375,7.82207677 15.6245375,10.458179 C15.6245375,13.0942813 13.4135373,15.2312644 10.6861305,15.2312644 C7.95872364,15.2312644 5.74772354,13.0942813 5.74772354,10.458179 C5.74772354,7.82207677 7.95872364,5.68509365 10.6861305,5.68509365 L10.6861305,5.68509365 Z" id="path-1"></path>
    </defs>
    <g id="icons" stroke="none" stroke-width="1" fill="none" fill-rule="evenodd">
        <g id="icon-/-search" transform="translate(-4.000000, -4.000000)">
            <mask id="mask-2" fill="white">
                <use xlink:href="#path-1"></use>
            </mask>
            <use id="Mask" fill="#C6C8D6" fill-rule="nonzero" xlink:href="#path-1"></use>
        </g>
    </g>
</svg>