<?xml version="1.0" encoding="UTF-8"?>
<svg width="16px" height="13px" viewBox="0 0 16 13" version="1.1" xmlns="http://www.w3.org/2000/svg" xmlns:xlink="http://www.w3.org/1999/xlink">
    <title>7CFA0399-6F64-488E-B68E-D443B49A0119@1x</title>
    <g id="Components" stroke="none" stroke-width="1" fill="none" fill-rule="evenodd">
        <g id="icon-/-social-/-twitter" transform="translate(-4.000000, -6.000000)" fill="#999DA1" fill-rule="nonzero">
            <path d="M20.0041901,7.53470096 C19.4151461,7.7957109 18.7831103,7.97272485 18.1190399,8.05175221 C18.7971009,7.6457106 19.3161396,7.00167164 19.562139,6.23660734 C18.9261022,6.61262797 18.2240349,6.88566723 17.4759685,7.03368008 C16.8769349,6.3946359 16.0248673,5.9965964 15.0797817,5.9965964 C13.2666504,5.9965964 11.7965376,7.46670919 11.7965376,9.27884673 C11.7965376,9.53585561 11.8255388,9.78687599 11.8815535,10.0269131 C9.15335765,9.88988352 6.73418437,8.58279407 5.115065,6.59662376 C4.83203619,7.08067285 4.67102645,7.64469072 4.67102645,8.24675783 C4.67102645,9.38585531 5.25107469,10.3909306 6.13114968,10.9789547 C5.59309944,10.9609631 5.08705763,10.8129502 4.64403895,10.5669246 L4.64403895,10.6079289 C4.64403895,12.1980472 5.77612805,13.5251419 7.2772294,13.8271822 C7.00220269,13.9011887 6.71219165,13.9421929 6.41216489,13.9421929 C6.20016133,13.9421929 5.99514,13.9211939 5.79411972,13.8811834 C6.21213834,15.1862854 7.42424852,16.1353459 8.86036543,16.1613658 C7.73727216,17.0414408 6.32116053,17.5644805 4.78305597,17.5644805 C4.51804498,17.5644805 4.25700889,17.5484763 4,17.5194752 C5.45311485,18.4525576 7.17824907,18.9965964 9.0323846,18.9965964 C15.0718319,18.9965964 18.3730938,13.9942066 18.3730938,9.65588723 L18.3620843,9.23086023 C19.007117,8.77079131 19.5651464,8.19275668 20.0041901,7.53470096 Z" id="socials-twitter"></path>
        </g>
    </g>
</svg>