<?xml version="1.0" encoding="UTF-8"?>
<svg width="18px" height="13px" viewBox="0 0 18 13" version="1.1" xmlns="http://www.w3.org/2000/svg" xmlns:xlink="http://www.w3.org/1999/xlink">
    <title>DEB6B6AA-10D5-4BD0-8A95-D2860F5818BD@1x</title>
    <g id="Components" stroke="none" stroke-width="1" fill="none" fill-rule="evenodd">
        <g id="icon-/-social-/-youtube" transform="translate(-3.000000, -6.000000)" fill="#AEB2B6" fill-rule="nonzero">
            <path d="M20.235,7.25272727 C19.74675,6.34036364 19.216875,6.17254545 18.138,6.10872727 C17.06025,6.03190909 14.350125,6 12.00225,6 C9.649875,6 6.938625,6.03190909 5.862,6.10754545 C4.785375,6.17254545 4.254375,6.33918182 3.761625,7.25272727 C3.25875,8.16390909 3,9.73336364 3,12.4964545 C3,12.4988182 3,12.5 3,12.5 C3,12.5023636 3,12.5035455 3,12.5035455 L3,12.5059091 C3,15.2571818 3.25875,16.8384545 3.761625,17.7401818 C4.254375,18.6525455 4.78425,18.818 5.860875,18.8948182 C6.938625,18.961 9.649875,19 12.00225,19 C14.350125,19 17.06025,18.961 18.139125,18.896 C19.218,18.8191818 19.747875,18.6537273 20.236125,17.7413636 C20.7435,16.8396364 21,15.2583636 21,12.5070909 C21,12.5070909 21,12.5035455 21,12.5011818 C21,12.5011818 21,12.4988182 21,12.4976364 C21,9.73336364 20.7435,8.16390909 20.235,7.25272727 Z M9.75,16.0454545 L9.75,8.95454545 L15.375,12.5 L9.75,16.0454545 Z" id="socials-youtube"></path>
        </g>
    </g>
</svg>